<svg width="190" height="190" viewBox="0 0 190 190" fill="none" xmlns="http://www.w3.org/2000/svg">
<g clip-path="url(#clip0_80_22)">
<path d="M136.562 161.381L121.184 146.003L112.812 154.375L136.562 178.125L178.125 136.562L169.753 128.191L136.562 161.381Z" fill="#1F7A8C"/>
<path d="M65.3125 53.4375C68.5917 53.4375 71.25 50.7792 71.25 47.5C71.25 44.2208 68.5917 41.5625 65.3125 41.5625C62.0333 41.5625 59.375 44.2208 59.375 47.5C59.375 50.7792 62.0333 53.4375 65.3125 53.4375Z" fill="#1F7A8C"/>
<path d="M65.3125 100.938C68.5917 100.938 71.25 98.2792 71.25 95C71.25 91.7208 68.5917 89.0625 65.3125 89.0625C62.0333 89.0625 59.375 91.7208 59.375 95C59.375 98.2792 62.0333 100.938 65.3125 100.938Z" fill="#1F7A8C"/>
<path d="M65.3125 148.438C68.5917 148.438 71.25 145.779 71.25 142.5C71.25 139.221 68.5917 136.562 65.3125 136.562C62.0333 136.562 59.375 139.221 59.375 142.5C59.375 145.779 62.0333 148.438 65.3125 148.438Z" fill="#1F7A8C"/>
<path d="M142.5 17.8125H47.5C44.3506 17.8125 41.3301 19.0636 39.1031 21.2906C36.8761 23.5176 35.625 26.5381 35.625 29.6875V160.312C35.625 163.462 36.8761 166.482 39.1031 168.709C41.3301 170.936 44.3506 172.188 47.5 172.188H95V160.312H47.5V124.688H154.375V29.6875C154.375 26.5381 153.124 23.5176 150.897 21.2906C148.67 19.0636 145.649 17.8125 142.5 17.8125ZM142.5 112.812H47.5V77.1875H142.5V112.812ZM142.5 65.3125H47.5V29.6875H142.5V65.3125Z" fill="#1F7A8C"/>
</g>
<defs>
<clipPath id="clip0_80_22">
<rect width="190" height="190" fill="white"/>
</clipPath>
</defs>
</svg>
