<svg width="170" height="65" viewBox="0 0 170 65" fill="none" xmlns="http://www.w3.org/2000/svg">
<path d="M65.8523 11.5881V8.54545H80.1875V11.5881H74.8438V26H71.196V11.5881H65.8523ZM86.4964 26.2557C85.1726 26.2557 84.0277 25.9744 83.0618 25.4119C82.1016 24.8437 81.3601 24.054 80.8374 23.0426C80.3146 22.0256 80.0533 20.8466 80.0533 19.5057C80.0533 18.1534 80.3146 16.9716 80.8374 15.9602C81.3601 14.9432 82.1016 14.1534 83.0618 13.5909C84.0277 13.0227 85.1726 12.7386 86.4964 12.7386C87.8203 12.7386 88.9624 13.0227 89.9226 13.5909C90.8885 14.1534 91.6328 14.9432 92.1555 15.9602C92.6783 16.9716 92.9396 18.1534 92.9396 19.5057C92.9396 20.8466 92.6783 22.0256 92.1555 23.0426C91.6328 24.054 90.8885 24.8437 89.9226 25.4119C88.9624 25.9744 87.8203 26.2557 86.4964 26.2557ZM86.5135 23.4432C87.1158 23.4432 87.6186 23.2727 88.022 22.9318C88.4254 22.5852 88.7294 22.1136 88.9339 21.517C89.1442 20.9205 89.2493 20.2415 89.2493 19.4801C89.2493 18.7188 89.1442 18.0398 88.9339 17.4432C88.7294 16.8466 88.4254 16.375 88.022 16.0284C87.6186 15.6818 87.1158 15.5085 86.5135 15.5085C85.9055 15.5085 85.3942 15.6818 84.9794 16.0284C84.5703 16.375 84.2607 16.8466 84.0504 17.4432C83.8459 18.0398 83.7436 18.7188 83.7436 19.4801C83.7436 20.2415 83.8459 20.9205 84.0504 21.517C84.2607 22.1136 84.5703 22.5852 84.9794 22.9318C85.3942 23.2727 85.9055 23.4432 86.5135 23.4432ZM101.556 26H95.3686V8.54545H101.607C103.363 8.54545 104.874 8.89489 106.141 9.59375C107.408 10.2869 108.383 11.2841 109.065 12.5852C109.752 13.8864 110.096 15.4432 110.096 17.2557C110.096 19.0739 109.752 20.6364 109.065 21.9432C108.383 23.25 107.403 24.2528 106.124 24.9517C104.852 25.6506 103.329 26 101.556 26ZM99.0589 22.8381H101.403C102.494 22.8381 103.411 22.6449 104.156 22.2585C104.906 21.8665 105.468 21.2614 105.843 20.4432C106.224 19.6193 106.414 18.5568 106.414 17.2557C106.414 15.9659 106.224 14.9119 105.843 14.0938C105.468 13.2756 104.908 12.6733 104.164 12.2869C103.42 11.9006 102.502 11.7074 101.411 11.7074H99.0589V22.8381ZM118.676 26.2557C117.352 26.2557 116.207 25.9744 115.241 25.4119C114.281 24.8437 113.54 24.054 113.017 23.0426C112.494 22.0256 112.233 20.8466 112.233 19.5057C112.233 18.1534 112.494 16.9716 113.017 15.9602C113.54 14.9432 114.281 14.1534 115.241 13.5909C116.207 13.0227 117.352 12.7386 118.676 12.7386C120 12.7386 121.142 13.0227 122.102 13.5909C123.068 14.1534 123.812 14.9432 124.335 15.9602C124.858 16.9716 125.119 18.1534 125.119 19.5057C125.119 20.8466 124.858 22.0256 124.335 23.0426C123.812 24.054 123.068 24.8437 122.102 25.4119C121.142 25.9744 120 26.2557 118.676 26.2557ZM118.693 23.4432C119.295 23.4432 119.798 23.2727 120.202 22.9318C120.605 22.5852 120.909 22.1136 121.114 21.517C121.324 20.9205 121.429 20.2415 121.429 19.4801C121.429 18.7188 121.324 18.0398 121.114 17.4432C120.909 16.8466 120.605 16.375 120.202 16.0284C119.798 15.6818 119.295 15.5085 118.693 15.5085C118.085 15.5085 117.574 15.6818 117.159 16.0284C116.75 16.375 116.44 16.8466 116.23 17.4432C116.026 18.0398 115.923 18.7188 115.923 19.4801C115.923 20.2415 116.026 20.9205 116.23 21.517C116.44 22.1136 116.75 22.5852 117.159 22.9318C117.574 23.2727 118.085 23.4432 118.693 23.4432ZM127.548 26V8.54545H131.239V22.9574H138.722V26H127.548ZM141.097 26V12.9091H144.728V26H141.097ZM142.921 11.2216C142.381 11.2216 141.918 11.0426 141.532 10.6847C141.151 10.321 140.961 9.88636 140.961 9.38068C140.961 8.88068 141.151 8.4517 141.532 8.09375C141.918 7.73011 142.381 7.54829 142.921 7.54829C143.461 7.54829 143.921 7.73011 144.302 8.09375C144.688 8.4517 144.881 8.88068 144.881 9.38068C144.881 9.88636 144.688 10.321 144.302 10.6847C143.921 11.0426 143.461 11.2216 142.921 11.2216ZM158.528 16.642L155.205 16.8466C155.148 16.5625 155.026 16.3068 154.838 16.0795C154.651 15.8466 154.403 15.6619 154.097 15.5256C153.795 15.3835 153.435 15.3125 153.014 15.3125C152.452 15.3125 151.977 15.4318 151.591 15.6705C151.205 15.9034 151.011 16.2159 151.011 16.608C151.011 16.9205 151.136 17.1847 151.386 17.4006C151.636 17.6165 152.065 17.7898 152.673 17.9205L155.043 18.3977C156.315 18.6591 157.264 19.0795 157.889 19.6591C158.514 20.2386 158.827 21 158.827 21.9432C158.827 22.8011 158.574 23.554 158.068 24.2017C157.568 24.8494 156.881 25.3551 156.006 25.7188C155.136 26.0767 154.134 26.2557 152.997 26.2557C151.264 26.2557 149.884 25.8949 148.855 25.1733C147.832 24.446 147.233 23.4574 147.057 22.2074L150.628 22.0199C150.736 22.5483 150.997 22.9517 151.412 23.2301C151.827 23.5028 152.358 23.6392 153.006 23.6392C153.642 23.6392 154.153 23.517 154.54 23.2727C154.932 23.0227 155.131 22.7017 155.136 22.3097C155.131 21.9801 154.991 21.7102 154.719 21.5C154.446 21.2841 154.026 21.1193 153.457 21.0057L151.19 20.554C149.912 20.2983 148.96 19.8551 148.335 19.2244C147.716 18.5937 147.406 17.7898 147.406 16.8125C147.406 15.9716 147.634 15.2472 148.088 14.6392C148.548 14.0312 149.193 13.5625 150.023 13.233C150.858 12.9034 151.835 12.7386 152.955 12.7386C154.608 12.7386 155.909 13.0881 156.858 13.7869C157.813 14.4858 158.369 15.4375 158.528 16.642ZM168.076 12.9091V15.6364H160.192V12.9091H168.076ZM161.982 9.77273H165.613V21.9773C165.613 22.3125 165.664 22.5739 165.766 22.7614C165.869 22.9432 166.011 23.071 166.192 23.1449C166.38 23.2187 166.596 23.2557 166.84 23.2557C167.011 23.2557 167.181 23.2415 167.352 23.2131C167.522 23.179 167.653 23.1534 167.744 23.1364L168.315 25.8381C168.133 25.8949 167.877 25.9602 167.548 26.0341C167.218 26.1136 166.817 26.1619 166.346 26.179C165.471 26.2131 164.704 26.0966 164.045 25.8295C163.391 25.5625 162.883 25.1477 162.519 24.5852C162.156 24.0227 161.977 23.3125 161.982 22.4545V9.77273ZM66.517 37.5455H71.0682L75.875 49.2727H76.0795L80.8864 37.5455H85.4375V55H81.858V43.6392H81.7131L77.196 54.9148H74.7585L70.2415 43.5966H70.0966V55H66.517V37.5455ZM92.1428 55.2472C91.3075 55.2472 90.5632 55.1023 89.9098 54.8125C89.2564 54.517 88.7393 54.0824 88.3587 53.5085C87.9837 52.929 87.7962 52.2074 87.7962 51.3438C87.7962 50.6165 87.9297 50.0057 88.1967 49.5114C88.4638 49.017 88.8274 48.6193 89.2876 48.3182C89.7479 48.017 90.2706 47.7898 90.8558 47.6364C91.4467 47.483 92.0661 47.375 92.7138 47.3125C93.4751 47.233 94.0888 47.1591 94.5547 47.0909C95.0206 47.017 95.3587 46.9091 95.5689 46.767C95.7791 46.625 95.8842 46.4148 95.8842 46.1364V46.0852C95.8842 45.5455 95.7138 45.1278 95.3729 44.8324C95.0376 44.5369 94.5604 44.3892 93.9411 44.3892C93.2876 44.3892 92.7678 44.5341 92.3814 44.8239C91.995 45.108 91.7393 45.4659 91.6143 45.8977L88.2564 45.625C88.4268 44.8295 88.7621 44.142 89.2621 43.5625C89.7621 42.9773 90.407 42.5284 91.1967 42.2159C91.9922 41.8977 92.9126 41.7386 93.9581 41.7386C94.6854 41.7386 95.3814 41.8239 96.0462 41.9943C96.7166 42.1648 97.3104 42.429 97.8274 42.7869C98.3501 43.1449 98.7621 43.6051 99.0632 44.1676C99.3643 44.7244 99.5149 45.392 99.5149 46.1705V55H96.0717V53.1847H95.9695C95.7592 53.5938 95.478 53.9545 95.1257 54.267C94.7734 54.5739 94.3501 54.8153 93.8558 54.9915C93.3615 55.1619 92.7905 55.2472 92.1428 55.2472ZM93.1825 52.7415C93.7166 52.7415 94.1882 52.6364 94.5973 52.4261C95.0064 52.2102 95.3274 51.9205 95.5604 51.5568C95.7933 51.1932 95.9098 50.7812 95.9098 50.321V48.9318C95.7962 49.0057 95.6399 49.0739 95.4411 49.1364C95.2479 49.1932 95.0291 49.2472 94.7848 49.2983C94.5405 49.3437 94.2962 49.3864 94.0518 49.4261C93.8075 49.4602 93.5859 49.4915 93.3871 49.5199C92.9609 49.5824 92.5888 49.6818 92.2706 49.8182C91.9524 49.9545 91.7053 50.1392 91.5291 50.3722C91.353 50.5994 91.2649 50.8835 91.2649 51.2244C91.2649 51.7188 91.4439 52.0966 91.8018 52.358C92.1655 52.6136 92.6257 52.7415 93.1825 52.7415ZM105.962 47.4318V55H102.332V41.9091H105.792V44.2188H105.945C106.235 43.4574 106.721 42.8551 107.403 42.4119C108.085 41.9631 108.911 41.7386 109.883 41.7386C110.792 41.7386 111.585 41.9375 112.261 42.3352C112.937 42.733 113.462 43.3011 113.837 44.0398C114.212 44.7727 114.4 45.6477 114.4 46.6648V55H110.769V47.3125C110.775 46.5114 110.57 45.8864 110.156 45.4375C109.741 44.983 109.17 44.7557 108.442 44.7557C107.954 44.7557 107.522 44.8608 107.147 45.071C106.778 45.2812 106.488 45.5881 106.278 45.9915C106.073 46.3892 105.968 46.8693 105.962 47.4318ZM120.994 55.2472C120.159 55.2472 119.415 55.1023 118.761 54.8125C118.108 54.517 117.591 54.0824 117.21 53.5085C116.835 52.929 116.648 52.2074 116.648 51.3438C116.648 50.6165 116.781 50.0057 117.048 49.5114C117.315 49.017 117.679 48.6193 118.139 48.3182C118.599 48.017 119.122 47.7898 119.707 47.6364C120.298 47.483 120.918 47.375 121.565 47.3125C122.327 47.233 122.94 47.1591 123.406 47.0909C123.872 47.017 124.21 46.9091 124.42 46.767C124.631 46.625 124.736 46.4148 124.736 46.1364V46.0852C124.736 45.5455 124.565 45.1278 124.224 44.8324C123.889 44.5369 123.412 44.3892 122.793 44.3892C122.139 44.3892 121.619 44.5341 121.233 44.8239C120.847 45.108 120.591 45.4659 120.466 45.8977L117.108 45.625C117.278 44.8295 117.614 44.142 118.114 43.5625C118.614 42.9773 119.259 42.5284 120.048 42.2159C120.844 41.8977 121.764 41.7386 122.81 41.7386C123.537 41.7386 124.233 41.8239 124.898 41.9943C125.568 42.1648 126.162 42.429 126.679 42.7869C127.202 43.1449 127.614 43.6051 127.915 44.1676C128.216 44.7244 128.366 45.392 128.366 46.1705V55H124.923V53.1847H124.821C124.611 53.5938 124.33 53.9545 123.977 54.267C123.625 54.5739 123.202 54.8153 122.707 54.9915C122.213 55.1619 121.642 55.2472 120.994 55.2472ZM122.034 52.7415C122.568 52.7415 123.04 52.6364 123.449 52.4261C123.858 52.2102 124.179 51.9205 124.412 51.5568C124.645 51.1932 124.761 50.7812 124.761 50.321V48.9318C124.648 49.0057 124.491 49.0739 124.293 49.1364C124.099 49.1932 123.881 49.2472 123.636 49.2983C123.392 49.3437 123.148 49.3864 122.903 49.4261C122.659 49.4602 122.438 49.4915 122.239 49.5199C121.813 49.5824 121.44 49.6818 121.122 49.8182C120.804 49.9545 120.557 50.1392 120.381 50.3722C120.205 50.5994 120.116 50.8835 120.116 51.2244C120.116 51.7188 120.295 52.0966 120.653 52.358C121.017 52.6136 121.477 52.7415 122.034 52.7415ZM137.081 60.1818C135.905 60.1818 134.896 60.0199 134.055 59.696C133.22 59.3778 132.555 58.9432 132.061 58.392C131.567 57.8409 131.246 57.2216 131.098 56.5341L134.456 56.0824C134.558 56.3438 134.72 56.5881 134.942 56.8153C135.163 57.0426 135.456 57.2244 135.82 57.3608C136.189 57.5028 136.638 57.5739 137.166 57.5739C137.956 57.5739 138.607 57.3807 139.118 56.9943C139.635 56.6136 139.893 55.9744 139.893 55.0767V52.6818H139.74C139.581 53.0455 139.342 53.3892 139.024 53.7131C138.706 54.0369 138.297 54.3011 137.797 54.5057C137.297 54.7102 136.7 54.8125 136.007 54.8125C135.024 54.8125 134.129 54.5852 133.322 54.1307C132.521 53.6705 131.882 52.9687 131.405 52.0256C130.933 51.0767 130.697 49.8778 130.697 48.429C130.697 46.946 130.939 45.7074 131.422 44.7131C131.905 43.7187 132.547 42.9744 133.348 42.4801C134.155 41.9858 135.038 41.7386 135.999 41.7386C136.732 41.7386 137.345 41.8636 137.839 42.1136C138.334 42.358 138.732 42.6648 139.033 43.0341C139.339 43.3977 139.575 43.7557 139.74 44.108H139.876V41.9091H143.482V55.1278C143.482 56.2415 143.209 57.1733 142.663 57.9233C142.118 58.6733 141.362 59.2358 140.396 59.6108C139.436 59.9915 138.331 60.1818 137.081 60.1818ZM137.158 52.0852C137.743 52.0852 138.237 51.9403 138.641 51.6506C139.05 51.3551 139.362 50.9347 139.578 50.3892C139.8 49.8381 139.911 49.179 139.911 48.4119C139.911 47.6449 139.803 46.9801 139.587 46.4176C139.371 45.8494 139.058 45.4091 138.649 45.0966C138.24 44.7841 137.743 44.6278 137.158 44.6278C136.561 44.6278 136.058 44.7898 135.649 45.1136C135.24 45.4318 134.93 45.875 134.72 46.4432C134.51 47.0114 134.405 47.6676 134.405 48.4119C134.405 49.1676 134.51 49.821 134.72 50.3722C134.936 50.9176 135.246 51.3409 135.649 51.642C136.058 51.9375 136.561 52.0852 137.158 52.0852ZM152.337 55.2557C150.99 55.2557 149.831 54.983 148.859 54.4375C147.893 53.8864 147.149 53.108 146.626 52.1023C146.104 51.0909 145.842 49.8949 145.842 48.5142C145.842 47.1676 146.104 45.9858 146.626 44.9688C147.149 43.9517 147.885 43.1591 148.834 42.5909C149.788 42.0227 150.908 41.7386 152.192 41.7386C153.055 41.7386 153.859 41.8778 154.604 42.1562C155.354 42.429 156.007 42.8409 156.564 43.392C157.126 43.9432 157.564 44.6364 157.876 45.4716C158.189 46.3011 158.345 47.2727 158.345 48.3864V49.3835H147.291V47.1335H154.928C154.928 46.6108 154.814 46.1477 154.587 45.7443C154.359 45.3409 154.044 45.0256 153.641 44.7983C153.243 44.5653 152.78 44.4489 152.251 44.4489C151.7 44.4489 151.212 44.5767 150.786 44.8324C150.365 45.0824 150.036 45.4205 149.797 45.8466C149.558 46.267 149.436 46.7358 149.43 47.2528V49.392C149.43 50.0398 149.55 50.5994 149.788 51.071C150.033 51.5426 150.376 51.9062 150.82 52.1619C151.263 52.4176 151.788 52.5455 152.396 52.5455C152.8 52.5455 153.169 52.4886 153.504 52.375C153.839 52.2614 154.126 52.0909 154.365 51.8636C154.604 51.6364 154.786 51.358 154.911 51.0284L158.268 51.25C158.098 52.0568 157.749 52.7614 157.22 53.3636C156.697 53.9602 156.021 54.4261 155.192 54.7614C154.368 55.0909 153.416 55.2557 152.337 55.2557ZM160.714 55V41.9091H164.234V44.1932H164.371C164.609 43.3807 165.01 42.767 165.572 42.3523C166.135 41.9318 166.783 41.7216 167.516 41.7216C167.697 41.7216 167.893 41.733 168.104 41.7557C168.314 41.7784 168.499 41.8097 168.658 41.8494V45.071C168.487 45.0199 168.251 44.9744 167.95 44.9347C167.649 44.8949 167.374 44.875 167.124 44.875C166.589 44.875 166.112 44.9915 165.692 45.2244C165.277 45.4517 164.947 45.7699 164.703 46.179C164.464 46.5881 164.345 47.0597 164.345 47.5938V55H160.714Z" fill="#1F7A8C"/>
<path d="M46.0417 5.41667H54.1667C54.885 5.41667 55.5738 5.70201 56.0817 6.20992C56.5897 6.71783 56.875 7.40671 56.875 8.125V56.875C56.875 57.5933 56.5897 58.2822 56.0817 58.7901C55.5738 59.298 54.885 59.5833 54.1667 59.5833H10.8333C10.115 59.5833 9.42616 59.298 8.91825 58.7901C8.41034 58.2822 8.125 57.5933 8.125 56.875V8.125C8.125 7.40671 8.41034 6.71783 8.91825 6.20992C9.42616 5.70201 10.115 5.41667 10.8333 5.41667H18.9583V0H24.375V5.41667H40.625V0H46.0417V5.41667ZM18.9583 21.6667V27.0833H46.0417V21.6667H18.9583ZM18.9583 32.5V37.9167H46.0417V32.5H18.9583Z" fill="#1F7A8C"/>
</svg>
