<svg width="190" height="190" viewBox="0 0 190 190" fill="none" xmlns="http://www.w3.org/2000/svg">
<g clip-path="url(#clip0_80_51)">
<path d="M146.491 8.63051H116.89L115.686 3.22474C115.273 1.34115 113.599 0 111.669 0H78.3248C76.3948 0 74.7275 1.34115 74.3078 3.22474L73.1103 8.63051H43.5025C32.672 8.63051 23.8659 17.4398 23.8659 28.2703V170.361C23.8659 181.191 32.672 190 43.5025 190H146.492C157.322 190 166.135 181.191 166.135 170.361V28.2703C166.135 17.4398 157.322 8.63051 146.491 8.63051ZM153.299 170.36C153.299 174.112 150.246 177.164 146.491 177.164H43.5021C39.7539 177.164 36.7015 174.112 36.7015 170.36V28.2703C36.7015 24.5189 39.7539 21.4669 43.5021 21.4669H70.2581L69.5752 24.5379C69.2992 25.7567 69.6002 27.0353 70.3776 28.0072C71.1606 28.9819 72.3455 29.5489 73.5922 29.5489H116.407C117.654 29.5489 118.839 28.9819 119.616 28.0072C120.399 27.0325 120.7 25.7571 120.424 24.5379L119.741 21.4669H146.491C150.246 21.4669 153.299 24.5193 153.299 28.2703V170.36Z" fill="#1F7A8C"/>
<path d="M68.9485 76.0481H86.4036L82.255 73.2153C76.4005 69.2201 74.8967 61.2313 78.8951 55.3775C82.8879 49.5298 90.8791 48.0163 96.7328 52.018L97.4165 52.4849V47.5869C97.4165 44.4122 94.8404 41.8364 91.6685 41.8364H68.9485C65.7774 41.8364 63.2012 44.4126 63.2012 47.5869V70.2977C63.2012 73.4728 65.7774 76.0481 68.9485 76.0481Z" fill="#1F7A8C"/>
<path d="M122.393 44.522L102.274 63.5693L93.1105 57.3176C90.1962 55.3149 86.1969 56.0733 84.1914 58.9974C82.192 61.9238 82.9443 65.9166 85.8777 67.916L99.3094 77.0886C100.406 77.8409 101.666 78.2073 102.926 78.2073C104.524 78.2073 106.11 77.6124 107.339 76.4493L131.218 53.8422C133.794 51.4073 133.9 47.3427 131.468 44.7698C129.024 42.1968 124.968 42.0871 122.393 44.522Z" fill="#1F7A8C"/>
<path d="M68.9485 120.138H86.4101L82.255 117.302C76.4005 113.306 74.8967 105.318 78.8951 99.4644C82.8879 93.613 90.8791 92.0995 96.7328 96.1044L97.4165 96.5718V91.6738C97.4165 88.4995 94.8404 85.9233 91.6685 85.9233H68.9485C65.7774 85.9233 63.2012 88.4995 63.2012 91.6738V114.388C63.2012 117.562 65.7774 120.138 68.9485 120.138Z" fill="#1F7A8C"/>
<path d="M122.393 88.6117L102.274 107.656L93.1105 101.404C90.1962 99.3982 86.1969 100.154 84.1914 103.084C82.192 106.011 82.9443 110.003 85.8777 112.003L99.3094 121.175C100.406 121.928 101.666 122.294 102.926 122.294C104.524 122.294 106.11 121.699 107.339 120.536L131.218 97.9319C133.794 95.497 133.9 91.4356 131.468 88.8595C129.024 86.2862 124.968 86.1796 122.393 88.6117Z" fill="#1F7A8C"/>
<path d="M91.6685 130.013H68.9485C65.7774 130.013 63.2012 132.589 63.2012 135.763V158.474C63.2012 161.648 65.7774 164.224 68.9485 164.224H91.6685C94.8404 164.224 97.4165 161.648 97.4165 158.474V135.763C97.4165 132.589 94.8404 130.013 91.6685 130.013Z" fill="#1F7A8C"/>
</g>
<defs>
<clipPath id="clip0_80_51">
<rect width="190" height="190" fill="white"/>
</clipPath>
</defs>
</svg>
