<svg width="642" height="1255" viewBox="0 0 642 1255" fill="none" xmlns="http://www.w3.org/2000/svg">
<path d="M67.1732 2.0504C48.0123 4.36369 26.6491 14.8786 17.399 26.445C13.4346 31.2819 7.92864 40.7453 5.06552 47.4748L0 59.6722V626.426C0 1155.33 0.22024 1194.02 3.74408 1204.75C11.4525 1228.51 25.7681 1242.6 49.7743 1250.38C61.0065 1253.96 76.8638 1254.17 319.348 1254.17H577.029L590.244 1249.12C607.202 1242.81 621.958 1228.51 629.006 1211.9L634.292 1199.49L635.393 948.814C636.274 752.185 637.155 697.507 639.357 695.404C641.339 693.511 642 675.215 642 618.855C642 555.766 641.56 544.62 638.696 542.307C636.053 540.204 635.393 534.526 635.393 516.861C635.393 499.616 636.274 493.518 638.696 490.994C641.339 488.47 642 481.32 642 453.351C642 425.171 641.339 418.231 638.696 416.128C635.833 413.815 635.393 391.733 635.393 241.37C635.393 121.92 634.732 65.9811 632.97 58.2001C625.482 24.342 604.779 6.88727 566.458 2.0504C545.755 -0.683474 89.1973 -0.683474 67.1732 2.0504ZM616.672 636.941V1142.71L319.568 1143.34C101.751 1143.55 21.8038 1143.13 19.6014 1141.45C15.4168 1138.08 14.9763 136.641 19.1609 132.646C21.1431 130.753 89.6377 130.332 319.348 130.543L616.672 131.174V636.941Z" fill="black"/>
<g clip-path="url(#clip0_2_3)">
<rect x="18" y="130" width="598" height="1057" rx="45" fill="white"/>
<rect x="445" y="407" width="150" height="50" rx="5" fill="#022B3A"/>
<path d="M472.124 436.227V428.182H474.158V436.227H472.124ZM469.118 433.222V431.188H477.163V433.222H469.118ZM493.026 426.364V438H490.901L485.838 430.676H485.753V438H483.293V426.364H485.452L490.474 433.682H490.577V426.364H493.026ZM498.956 438.17C498.073 438.17 497.31 437.983 496.666 437.608C496.026 437.229 495.532 436.703 495.183 436.028C494.835 435.35 494.661 434.564 494.661 433.67C494.661 432.769 494.835 431.981 495.183 431.307C495.532 430.629 496.026 430.102 496.666 429.727C497.31 429.348 498.073 429.159 498.956 429.159C499.839 429.159 500.6 429.348 501.24 429.727C501.884 430.102 502.38 430.629 502.729 431.307C503.077 431.981 503.251 432.769 503.251 433.67C503.251 434.564 503.077 435.35 502.729 436.028C502.38 436.703 501.884 437.229 501.24 437.608C500.6 437.983 499.839 438.17 498.956 438.17ZM498.967 436.295C499.369 436.295 499.704 436.182 499.973 435.955C500.242 435.723 500.445 435.409 500.581 435.011C500.721 434.614 500.791 434.161 500.791 433.653C500.791 433.146 500.721 432.693 500.581 432.295C500.445 431.898 500.242 431.583 499.973 431.352C499.704 431.121 499.369 431.006 498.967 431.006C498.562 431.006 498.221 431.121 497.945 431.352C497.672 431.583 497.465 431.898 497.325 432.295C497.189 432.693 497.121 433.146 497.121 433.653C497.121 434.161 497.189 434.614 497.325 435.011C497.465 435.409 497.672 435.723 497.945 435.955C498.221 436.182 498.562 436.295 498.967 436.295ZM512.68 429.273L509.629 438H506.902L503.851 429.273H506.408L508.22 435.517H508.311L510.118 429.273H512.68ZM516.173 438.165C515.616 438.165 515.12 438.068 514.685 437.875C514.249 437.678 513.904 437.388 513.651 437.006C513.401 436.619 513.276 436.138 513.276 435.562C513.276 435.078 513.365 434.67 513.543 434.341C513.721 434.011 513.963 433.746 514.27 433.545C514.577 433.345 514.925 433.193 515.315 433.091C515.709 432.989 516.122 432.917 516.554 432.875C517.062 432.822 517.471 432.773 517.781 432.727C518.092 432.678 518.317 432.606 518.457 432.511C518.598 432.417 518.668 432.277 518.668 432.091V432.057C518.668 431.697 518.554 431.419 518.327 431.222C518.103 431.025 517.785 430.926 517.372 430.926C516.937 430.926 516.59 431.023 516.332 431.216C516.075 431.405 515.904 431.644 515.821 431.932L513.582 431.75C513.696 431.22 513.92 430.761 514.253 430.375C514.586 429.985 515.016 429.686 515.543 429.477C516.073 429.265 516.687 429.159 517.384 429.159C517.868 429.159 518.332 429.216 518.776 429.33C519.223 429.443 519.618 429.619 519.963 429.858C520.312 430.097 520.586 430.403 520.787 430.778C520.988 431.15 521.088 431.595 521.088 432.114V438H518.793V436.79H518.724C518.584 437.062 518.397 437.303 518.162 437.511C517.927 437.716 517.645 437.877 517.315 437.994C516.986 438.108 516.605 438.165 516.173 438.165ZM516.866 436.494C517.223 436.494 517.537 436.424 517.81 436.284C518.082 436.14 518.296 435.947 518.452 435.705C518.607 435.462 518.685 435.187 518.685 434.881V433.955C518.609 434.004 518.505 434.049 518.372 434.091C518.243 434.129 518.098 434.165 517.935 434.199C517.772 434.229 517.609 434.258 517.446 434.284C517.283 434.307 517.135 434.328 517.003 434.347C516.719 434.388 516.471 434.455 516.259 434.545C516.046 434.636 515.882 434.759 515.764 434.915C515.647 435.066 515.588 435.256 515.588 435.483C515.588 435.812 515.707 436.064 515.946 436.239C516.188 436.409 516.495 436.494 516.866 436.494ZM526.271 428.392V426.364H535.828V428.392H532.266V438H529.834V428.392H526.271ZM538.658 438.165C538.101 438.165 537.605 438.068 537.169 437.875C536.733 437.678 536.389 437.388 536.135 437.006C535.885 436.619 535.76 436.138 535.76 435.562C535.76 435.078 535.849 434.67 536.027 434.341C536.205 434.011 536.447 433.746 536.754 433.545C537.061 433.345 537.41 433.193 537.8 433.091C538.194 432.989 538.607 432.917 539.038 432.875C539.546 432.822 539.955 432.773 540.266 432.727C540.576 432.678 540.802 432.606 540.942 432.511C541.082 432.417 541.152 432.277 541.152 432.091V432.057C541.152 431.697 541.038 431.419 540.811 431.222C540.588 431.025 540.269 430.926 539.857 430.926C539.421 430.926 539.074 431.023 538.817 431.216C538.559 431.405 538.389 431.644 538.305 431.932L536.067 431.75C536.18 431.22 536.404 430.761 536.737 430.375C537.071 429.985 537.5 429.686 538.027 429.477C538.557 429.265 539.171 429.159 539.868 429.159C540.353 429.159 540.817 429.216 541.26 429.33C541.707 429.443 542.103 429.619 542.447 429.858C542.796 430.097 543.071 430.403 543.271 430.778C543.472 431.15 543.572 431.595 543.572 432.114V438H541.277V436.79H541.209C541.069 437.062 540.881 437.303 540.646 437.511C540.411 437.716 540.129 437.877 539.8 437.994C539.47 438.108 539.089 438.165 538.658 438.165ZM539.351 436.494C539.707 436.494 540.021 436.424 540.294 436.284C540.567 436.14 540.781 435.947 540.936 435.705C541.091 435.462 541.169 435.187 541.169 434.881V433.955C541.093 434.004 540.989 434.049 540.857 434.091C540.728 434.129 540.582 434.165 540.419 434.199C540.256 434.229 540.093 434.258 539.93 434.284C539.768 434.307 539.62 434.328 539.487 434.347C539.203 434.388 538.955 434.455 538.743 434.545C538.531 434.636 538.366 434.759 538.249 434.915C538.131 435.066 538.072 435.256 538.072 435.483C538.072 435.812 538.192 436.064 538.43 436.239C538.673 436.409 538.98 436.494 539.351 436.494ZM545.45 438V429.273H547.797V430.795H547.888C548.047 430.254 548.314 429.845 548.689 429.568C549.064 429.288 549.496 429.148 549.984 429.148C550.106 429.148 550.236 429.155 550.376 429.17C550.517 429.186 550.64 429.206 550.746 429.233V431.381C550.632 431.347 550.475 431.316 550.274 431.29C550.073 431.263 549.89 431.25 549.723 431.25C549.367 431.25 549.049 431.328 548.768 431.483C548.492 431.634 548.272 431.847 548.109 432.119C547.95 432.392 547.871 432.706 547.871 433.062V438H545.45ZM555.568 438.17C554.67 438.17 553.898 437.989 553.25 437.625C552.606 437.258 552.11 436.739 551.761 436.068C551.413 435.394 551.239 434.597 551.239 433.676C551.239 432.778 551.413 431.991 551.761 431.312C552.11 430.634 552.6 430.106 553.233 429.727C553.869 429.348 554.616 429.159 555.472 429.159C556.047 429.159 556.583 429.252 557.08 429.438C557.58 429.619 558.015 429.894 558.386 430.261C558.761 430.629 559.053 431.091 559.261 431.648C559.47 432.201 559.574 432.848 559.574 433.591V434.256H552.205V432.756H557.295C557.295 432.407 557.22 432.098 557.068 431.83C556.917 431.561 556.706 431.35 556.438 431.199C556.172 431.044 555.864 430.966 555.511 430.966C555.144 430.966 554.818 431.051 554.534 431.222C554.254 431.388 554.034 431.614 553.875 431.898C553.716 432.178 553.634 432.491 553.631 432.835V434.261C553.631 434.693 553.71 435.066 553.869 435.381C554.032 435.695 554.261 435.938 554.557 436.108C554.852 436.278 555.203 436.364 555.608 436.364C555.877 436.364 556.123 436.326 556.347 436.25C556.57 436.174 556.761 436.061 556.92 435.909C557.08 435.758 557.201 435.572 557.284 435.352L559.523 435.5C559.409 436.038 559.176 436.508 558.824 436.909C558.475 437.307 558.025 437.617 557.472 437.841C556.922 438.061 556.288 438.17 555.568 438.17ZM565.847 429.273V431.091H560.46V429.273H565.847ZM561.693 438V428.642C561.693 428.009 561.816 427.485 562.062 427.068C562.312 426.652 562.653 426.339 563.085 426.131C563.517 425.922 564.008 425.818 564.557 425.818C564.928 425.818 565.267 425.847 565.574 425.903C565.884 425.96 566.116 426.011 566.267 426.057L565.835 427.875C565.741 427.845 565.623 427.816 565.483 427.79C565.347 427.763 565.206 427.75 565.062 427.75C564.706 427.75 564.458 427.833 564.318 428C564.178 428.163 564.108 428.392 564.108 428.688V438H561.693ZM569.501 438.165C568.945 438.165 568.448 438.068 568.013 437.875C567.577 437.678 567.232 437.388 566.979 437.006C566.729 436.619 566.604 436.138 566.604 435.562C566.604 435.078 566.693 434.67 566.871 434.341C567.049 434.011 567.291 433.746 567.598 433.545C567.905 433.345 568.253 433.193 568.643 433.091C569.037 432.989 569.45 432.917 569.882 432.875C570.39 432.822 570.799 432.773 571.109 432.727C571.42 432.678 571.645 432.606 571.786 432.511C571.926 432.417 571.996 432.277 571.996 432.091V432.057C571.996 431.697 571.882 431.419 571.655 431.222C571.431 431.025 571.113 430.926 570.7 430.926C570.265 430.926 569.918 431.023 569.661 431.216C569.403 431.405 569.232 431.644 569.149 431.932L566.911 431.75C567.024 431.22 567.248 430.761 567.581 430.375C567.914 429.985 568.344 429.686 568.871 429.477C569.401 429.265 570.015 429.159 570.712 429.159C571.196 429.159 571.661 429.216 572.104 429.33C572.551 429.443 572.946 429.619 573.291 429.858C573.64 430.097 573.914 430.403 574.115 430.778C574.316 431.15 574.416 431.595 574.416 432.114V438H572.121V436.79H572.053C571.912 437.062 571.725 437.303 571.49 437.511C571.255 437.716 570.973 437.877 570.643 437.994C570.314 438.108 569.933 438.165 569.501 438.165ZM570.195 436.494C570.551 436.494 570.865 436.424 571.138 436.284C571.411 436.14 571.625 435.947 571.78 435.705C571.935 435.462 572.013 435.187 572.013 434.881V433.955C571.937 434.004 571.833 434.049 571.7 434.091C571.571 434.129 571.426 434.165 571.263 434.199C571.1 434.229 570.937 434.258 570.774 434.284C570.611 434.307 570.464 434.328 570.331 434.347C570.047 434.388 569.799 434.455 569.587 434.545C569.375 434.636 569.21 434.759 569.092 434.915C568.975 435.066 568.916 435.256 568.916 435.483C568.916 435.812 569.036 436.064 569.274 436.239C569.517 436.409 569.823 436.494 570.195 436.494Z" fill="white"/>
<rect x="48" y="479" width="547.261" height="50" rx="5" fill="#E1E5F2"/>
<path d="M104.568 499.392V497.364H114.125V499.392H110.562V509H108.131V499.392H104.568ZM114.747 509V500.273H117.094V501.795H117.185C117.344 501.254 117.611 500.845 117.986 500.568C118.361 500.288 118.793 500.148 119.281 500.148C119.402 500.148 119.533 500.155 119.673 500.17C119.813 500.186 119.937 500.206 120.043 500.233V502.381C119.929 502.347 119.772 502.316 119.571 502.29C119.37 502.263 119.187 502.25 119.02 502.25C118.664 502.25 118.346 502.328 118.065 502.483C117.789 502.634 117.569 502.847 117.406 503.119C117.247 503.392 117.168 503.706 117.168 504.062V509H114.747ZM123.533 509.165C122.976 509.165 122.48 509.068 122.044 508.875C121.608 508.678 121.264 508.388 121.01 508.006C120.76 507.619 120.635 507.138 120.635 506.562C120.635 506.078 120.724 505.67 120.902 505.341C121.08 505.011 121.322 504.746 121.629 504.545C121.936 504.345 122.285 504.193 122.675 504.091C123.069 503.989 123.482 503.917 123.913 503.875C124.421 503.822 124.83 503.773 125.141 503.727C125.451 503.678 125.677 503.606 125.817 503.511C125.957 503.417 126.027 503.277 126.027 503.091V503.057C126.027 502.697 125.913 502.419 125.686 502.222C125.463 502.025 125.144 501.926 124.732 501.926C124.296 501.926 123.949 502.023 123.692 502.216C123.434 502.405 123.264 502.644 123.18 502.932L120.942 502.75C121.055 502.22 121.279 501.761 121.612 501.375C121.946 500.985 122.375 500.686 122.902 500.477C123.432 500.265 124.046 500.159 124.743 500.159C125.228 500.159 125.692 500.216 126.135 500.33C126.582 500.443 126.978 500.619 127.322 500.858C127.671 501.097 127.946 501.403 128.146 501.778C128.347 502.15 128.447 502.595 128.447 503.114V509H126.152V507.79H126.084C125.944 508.062 125.756 508.303 125.521 508.511C125.286 508.716 125.004 508.877 124.675 508.994C124.345 509.108 123.964 509.165 123.533 509.165ZM124.226 507.494C124.582 507.494 124.896 507.424 125.169 507.284C125.442 507.14 125.656 506.947 125.811 506.705C125.966 506.462 126.044 506.187 126.044 505.881V504.955C125.968 505.004 125.864 505.049 125.732 505.091C125.603 505.129 125.457 505.165 125.294 505.199C125.131 505.229 124.968 505.258 124.805 505.284C124.643 505.307 124.495 505.328 124.362 505.347C124.078 505.388 123.83 505.455 123.618 505.545C123.406 505.636 123.241 505.759 123.124 505.915C123.006 506.066 122.947 506.256 122.947 506.483C122.947 506.812 123.067 507.064 123.305 507.239C123.548 507.409 123.855 507.494 124.226 507.494ZM130.371 509V497.364H132.791V501.739H132.865C132.971 501.504 133.125 501.265 133.325 501.023C133.53 500.777 133.795 500.572 134.121 500.409C134.45 500.242 134.859 500.159 135.348 500.159C135.984 500.159 136.571 500.326 137.109 500.659C137.647 500.989 138.077 501.487 138.399 502.153C138.721 502.816 138.882 503.648 138.882 504.648C138.882 505.621 138.725 506.443 138.411 507.114C138.1 507.78 137.676 508.286 137.138 508.631C136.604 508.972 136.005 509.142 135.342 509.142C134.873 509.142 134.473 509.064 134.143 508.909C133.818 508.754 133.551 508.559 133.342 508.324C133.134 508.085 132.975 507.845 132.865 507.602H132.757V509H130.371ZM132.74 504.636C132.74 505.155 132.812 505.608 132.956 505.994C133.1 506.381 133.308 506.682 133.581 506.898C133.854 507.11 134.185 507.216 134.575 507.216C134.969 507.216 135.303 507.108 135.575 506.892C135.848 506.672 136.054 506.369 136.195 505.983C136.339 505.593 136.411 505.144 136.411 504.636C136.411 504.133 136.34 503.689 136.2 503.307C136.06 502.924 135.854 502.625 135.581 502.409C135.308 502.193 134.973 502.085 134.575 502.085C134.181 502.085 133.848 502.189 133.575 502.398C133.306 502.606 133.1 502.902 132.956 503.284C132.812 503.667 132.74 504.117 132.74 504.636ZM142.986 509.165C142.429 509.165 141.933 509.068 141.497 508.875C141.062 508.678 140.717 508.388 140.463 508.006C140.213 507.619 140.088 507.138 140.088 506.562C140.088 506.078 140.177 505.67 140.355 505.341C140.533 505.011 140.776 504.746 141.082 504.545C141.389 504.345 141.738 504.193 142.128 504.091C142.522 503.989 142.935 503.917 143.366 503.875C143.874 503.822 144.283 503.773 144.594 503.727C144.904 503.678 145.13 503.606 145.27 503.511C145.41 503.417 145.48 503.277 145.48 503.091V503.057C145.48 502.697 145.366 502.419 145.139 502.222C144.916 502.025 144.598 501.926 144.185 501.926C143.749 501.926 143.402 502.023 143.145 502.216C142.887 502.405 142.717 502.644 142.634 502.932L140.395 502.75C140.509 502.22 140.732 501.761 141.065 501.375C141.399 500.985 141.829 500.686 142.355 500.477C142.885 500.265 143.499 500.159 144.196 500.159C144.681 500.159 145.145 500.216 145.588 500.33C146.035 500.443 146.431 500.619 146.776 500.858C147.124 501.097 147.399 501.403 147.599 501.778C147.8 502.15 147.901 502.595 147.901 503.114V509H145.605V507.79H145.537C145.397 508.062 145.209 508.303 144.974 508.511C144.74 508.716 144.457 508.877 144.128 508.994C143.798 509.108 143.418 509.165 142.986 509.165ZM143.679 507.494C144.035 507.494 144.349 507.424 144.622 507.284C144.895 507.14 145.109 506.947 145.264 506.705C145.42 506.462 145.497 506.187 145.497 505.881V504.955C145.421 505.004 145.317 505.049 145.185 505.091C145.056 505.129 144.91 505.165 144.747 505.199C144.584 505.229 144.421 505.258 144.259 505.284C144.096 505.307 143.948 505.328 143.815 505.347C143.531 505.388 143.283 505.455 143.071 505.545C142.859 505.636 142.694 505.759 142.577 505.915C142.459 506.066 142.401 506.256 142.401 506.483C142.401 506.812 142.52 507.064 142.759 507.239C143.001 507.409 143.308 507.494 143.679 507.494ZM152.199 497.364V509H149.778V497.364H152.199ZM156.558 503.955V509H154.138V497.364H156.49V501.812H156.592C156.789 501.297 157.107 500.894 157.547 500.602C157.986 500.307 158.537 500.159 159.2 500.159C159.806 500.159 160.335 500.292 160.786 500.557C161.24 500.818 161.592 501.195 161.842 501.688C162.096 502.176 162.221 502.761 162.217 503.443V509H159.797V503.875C159.801 503.337 159.664 502.919 159.388 502.619C159.115 502.32 158.732 502.17 158.24 502.17C157.911 502.17 157.619 502.241 157.365 502.381C157.115 502.521 156.918 502.725 156.774 502.994C156.634 503.259 156.562 503.58 156.558 503.955ZM168.065 509.17C167.183 509.17 166.42 508.983 165.776 508.608C165.135 508.229 164.641 507.703 164.293 507.028C163.944 506.35 163.77 505.564 163.77 504.67C163.77 503.769 163.944 502.981 164.293 502.307C164.641 501.629 165.135 501.102 165.776 500.727C166.42 500.348 167.183 500.159 168.065 500.159C168.948 500.159 169.709 500.348 170.349 500.727C170.993 501.102 171.49 501.629 171.838 502.307C172.187 502.981 172.361 503.769 172.361 504.67C172.361 505.564 172.187 506.35 171.838 507.028C171.49 507.703 170.993 508.229 170.349 508.608C169.709 508.983 168.948 509.17 168.065 509.17ZM168.077 507.295C168.478 507.295 168.813 507.182 169.082 506.955C169.351 506.723 169.554 506.409 169.69 506.011C169.83 505.614 169.901 505.161 169.901 504.653C169.901 504.146 169.83 503.693 169.69 503.295C169.554 502.898 169.351 502.583 169.082 502.352C168.813 502.121 168.478 502.006 168.077 502.006C167.671 502.006 167.33 502.121 167.054 502.352C166.781 502.583 166.575 502.898 166.435 503.295C166.298 503.693 166.23 504.146 166.23 504.653C166.23 505.161 166.298 505.614 166.435 506.011C166.575 506.409 166.781 506.723 167.054 506.955C167.33 507.182 167.671 507.295 168.077 507.295ZM180.854 509.142C180.191 509.142 179.59 508.972 179.053 508.631C178.518 508.286 178.094 507.78 177.78 507.114C177.469 506.443 177.314 505.621 177.314 504.648C177.314 503.648 177.475 502.816 177.797 502.153C178.119 501.487 178.547 500.989 179.081 500.659C179.619 500.326 180.208 500.159 180.848 500.159C181.337 500.159 181.744 500.242 182.07 500.409C182.399 500.572 182.664 500.777 182.865 501.023C183.07 501.265 183.225 501.504 183.331 501.739H183.405V497.364H185.82V509H183.433V507.602H183.331C183.217 507.845 183.056 508.085 182.848 508.324C182.643 508.559 182.376 508.754 182.047 508.909C181.721 509.064 181.323 509.142 180.854 509.142ZM181.621 507.216C182.011 507.216 182.34 507.11 182.609 506.898C182.882 506.682 183.09 506.381 183.234 505.994C183.382 505.608 183.456 505.155 183.456 504.636C183.456 504.117 183.384 503.667 183.24 503.284C183.096 502.902 182.888 502.606 182.615 502.398C182.342 502.189 182.011 502.085 181.621 502.085C181.223 502.085 180.888 502.193 180.615 502.409C180.342 502.625 180.136 502.924 179.996 503.307C179.856 503.689 179.786 504.133 179.786 504.636C179.786 505.144 179.856 505.593 179.996 505.983C180.14 506.369 180.346 506.672 180.615 506.892C180.888 507.108 181.223 507.216 181.621 507.216ZM191.787 509.17C190.889 509.17 190.116 508.989 189.469 508.625C188.825 508.258 188.329 507.739 187.98 507.068C187.632 506.394 187.457 505.597 187.457 504.676C187.457 503.778 187.632 502.991 187.98 502.312C188.329 501.634 188.819 501.106 189.452 500.727C190.088 500.348 190.834 500.159 191.69 500.159C192.266 500.159 192.802 500.252 193.298 500.438C193.798 500.619 194.234 500.894 194.605 501.261C194.98 501.629 195.272 502.091 195.48 502.648C195.688 503.201 195.793 503.848 195.793 504.591V505.256H188.423V503.756H193.514C193.514 503.407 193.438 503.098 193.287 502.83C193.135 502.561 192.925 502.35 192.656 502.199C192.391 502.044 192.082 501.966 191.73 501.966C191.363 501.966 191.037 502.051 190.753 502.222C190.473 502.388 190.253 502.614 190.094 502.898C189.935 503.178 189.853 503.491 189.849 503.835V505.261C189.849 505.693 189.929 506.066 190.088 506.381C190.251 506.695 190.48 506.938 190.776 507.108C191.071 507.278 191.421 507.364 191.827 507.364C192.096 507.364 192.342 507.326 192.565 507.25C192.789 507.174 192.98 507.061 193.139 506.909C193.298 506.758 193.42 506.572 193.503 506.352L195.741 506.5C195.628 507.038 195.395 507.508 195.043 507.909C194.694 508.307 194.243 508.617 193.69 508.841C193.141 509.061 192.507 509.17 191.787 509.17ZM207.433 500.71C207.388 500.252 207.193 499.896 206.848 499.642C206.503 499.388 206.036 499.261 205.445 499.261C205.043 499.261 204.704 499.318 204.428 499.432C204.151 499.542 203.939 499.695 203.791 499.892C203.647 500.089 203.575 500.312 203.575 500.562C203.568 500.771 203.611 500.953 203.706 501.108C203.804 501.263 203.939 501.398 204.109 501.511C204.28 501.621 204.477 501.718 204.7 501.801C204.924 501.881 205.162 501.949 205.416 502.006L206.462 502.256C206.969 502.369 207.435 502.521 207.859 502.71C208.284 502.9 208.651 503.133 208.962 503.409C209.272 503.686 209.513 504.011 209.683 504.386C209.857 504.761 209.946 505.191 209.95 505.676C209.946 506.388 209.765 507.006 209.405 507.528C209.049 508.047 208.534 508.451 207.859 508.739C207.189 509.023 206.38 509.165 205.433 509.165C204.494 509.165 203.676 509.021 202.979 508.733C202.286 508.445 201.744 508.019 201.354 507.455C200.967 506.886 200.765 506.184 200.746 505.347H203.126C203.153 505.737 203.265 506.062 203.462 506.324C203.662 506.581 203.929 506.777 204.263 506.909C204.6 507.038 204.981 507.102 205.405 507.102C205.821 507.102 206.183 507.042 206.49 506.92C206.801 506.799 207.041 506.631 207.212 506.415C207.382 506.199 207.467 505.951 207.467 505.67C207.467 505.409 207.39 505.189 207.234 505.011C207.083 504.833 206.859 504.682 206.564 504.557C206.272 504.432 205.914 504.318 205.49 504.216L204.223 503.898C203.242 503.659 202.467 503.286 201.899 502.778C201.331 502.271 201.049 501.587 201.053 500.727C201.049 500.023 201.236 499.407 201.615 498.881C201.998 498.354 202.522 497.943 203.189 497.648C203.856 497.352 204.613 497.205 205.462 497.205C206.325 497.205 207.079 497.352 207.723 497.648C208.371 497.943 208.875 498.354 209.234 498.881C209.594 499.407 209.78 500.017 209.791 500.71H207.433ZM222.298 503.182C222.298 504.451 222.058 505.53 221.577 506.42C221.099 507.311 220.448 507.991 219.622 508.46C218.8 508.926 217.876 509.159 216.849 509.159C215.815 509.159 214.887 508.924 214.065 508.455C213.243 507.985 212.594 507.305 212.116 506.415C211.639 505.525 211.401 504.447 211.401 503.182C211.401 501.913 211.639 500.833 212.116 499.943C212.594 499.053 213.243 498.375 214.065 497.909C214.887 497.439 215.815 497.205 216.849 497.205C217.876 497.205 218.8 497.439 219.622 497.909C220.448 498.375 221.099 499.053 221.577 499.943C222.058 500.833 222.298 501.913 222.298 503.182ZM219.804 503.182C219.804 502.36 219.681 501.667 219.435 501.102C219.192 500.538 218.849 500.11 218.406 499.818C217.963 499.527 217.444 499.381 216.849 499.381C216.255 499.381 215.736 499.527 215.293 499.818C214.849 500.11 214.505 500.538 214.259 501.102C214.016 501.667 213.895 502.36 213.895 503.182C213.895 504.004 214.016 504.697 214.259 505.261C214.505 505.826 214.849 506.254 215.293 506.545C215.736 506.837 216.255 506.983 216.849 506.983C217.444 506.983 217.963 506.837 218.406 506.545C218.849 506.254 219.192 505.826 219.435 505.261C219.681 504.697 219.804 504.004 219.804 503.182Z" fill="#022B3A"/>
<g clip-path="url(#clip1_2_3)">
<path fill-rule="evenodd" clip-rule="evenodd" d="M80.1595 498.833C80.3704 499.044 80.4889 499.33 80.4889 499.629C80.4889 499.927 80.3704 500.213 80.1595 500.424L71.7272 508.856C71.6158 508.968 71.4835 509.056 71.3379 509.116C71.1923 509.177 71.0362 509.208 70.8786 509.208C70.721 509.208 70.5649 509.177 70.4193 509.116C70.2737 509.056 70.1414 508.968 70.03 508.856L65.8405 504.668C65.733 504.564 65.6473 504.44 65.5884 504.302C65.5294 504.165 65.4984 504.017 65.4971 503.868C65.4958 503.719 65.5242 503.571 65.5808 503.432C65.6374 503.294 65.7209 503.168 65.8265 503.063C65.9322 502.957 66.0578 502.874 66.196 502.817C66.3343 502.761 66.4824 502.732 66.6318 502.733C66.7812 502.735 66.9288 502.766 67.0661 502.825C67.2033 502.884 67.3275 502.969 67.4312 503.077L70.8782 506.524L78.568 498.833C78.6725 498.729 78.7965 498.646 78.9331 498.589C79.0696 498.533 79.2159 498.503 79.3637 498.503C79.5115 498.503 79.6579 498.533 79.7944 498.589C79.931 498.646 80.055 498.729 80.1595 498.833Z" fill="#022B3A"/>
</g>
<rect x="63" y="494" width="20" height="20" rx="1" stroke="#022B3A" stroke-width="2"/>
<path d="M537.5 508.55V511.083C537.5 511.317 537.683 511.5 537.917 511.5H540.45C540.558 511.5 540.667 511.458 540.742 511.375L549.842 502.283L546.717 499.158L537.625 508.25C537.542 508.333 537.5 508.433 537.5 508.55ZM552.258 499.867C552.336 499.79 552.397 499.698 552.439 499.597C552.481 499.496 552.502 499.388 552.502 499.279C552.502 499.17 552.481 499.062 552.439 498.961C552.397 498.86 552.336 498.769 552.258 498.692L550.308 496.742C550.231 496.664 550.14 496.603 550.039 496.561C549.938 496.519 549.83 496.498 549.721 496.498C549.612 496.498 549.504 496.519 549.403 496.561C549.302 496.603 549.21 496.664 549.133 496.742L547.608 498.267L550.733 501.392L552.258 499.867Z" fill="#022B3A"/>
<path d="M576.833 498.167L565.167 509.833" stroke="#022B3A" stroke-width="2" stroke-linecap="round"/>
<path d="M565.167 498.167L576.833 509.833" stroke="#022B3A" stroke-width="2" stroke-linecap="round"/>
<rect x="48" y="551" width="547.261" height="50" rx="5" fill="#E1E5F2"/>
<path d="M105.011 581V569.364H109.602C110.481 569.364 111.231 569.521 111.852 569.835C112.477 570.146 112.953 570.587 113.278 571.159C113.608 571.727 113.773 572.396 113.773 573.165C113.773 573.937 113.606 574.602 113.273 575.159C112.939 575.712 112.456 576.136 111.824 576.432C111.195 576.727 110.434 576.875 109.54 576.875H106.466V574.898H109.142C109.612 574.898 110.002 574.833 110.312 574.705C110.623 574.576 110.854 574.383 111.006 574.125C111.161 573.867 111.239 573.547 111.239 573.165C111.239 572.778 111.161 572.453 111.006 572.188C110.854 571.922 110.621 571.722 110.307 571.585C109.996 571.445 109.604 571.375 109.131 571.375H107.472V581H105.011ZM111.295 575.705L114.188 581H111.472L108.642 575.705H111.295ZM119.303 581.17C118.405 581.17 117.632 580.989 116.984 580.625C116.34 580.258 115.844 579.739 115.496 579.068C115.147 578.394 114.973 577.597 114.973 576.676C114.973 575.778 115.147 574.991 115.496 574.312C115.844 573.634 116.335 573.106 116.967 572.727C117.604 572.348 118.35 572.159 119.206 572.159C119.782 572.159 120.318 572.252 120.814 572.438C121.314 572.619 121.75 572.894 122.121 573.261C122.496 573.629 122.787 574.091 122.996 574.648C123.204 575.201 123.308 575.848 123.308 576.591V577.256H115.939V575.756H121.03C121.03 575.407 120.954 575.098 120.803 574.83C120.651 574.561 120.441 574.35 120.172 574.199C119.907 574.044 119.598 573.966 119.246 573.966C118.878 573.966 118.553 574.051 118.268 574.222C117.988 574.388 117.768 574.614 117.609 574.898C117.45 575.178 117.369 575.491 117.365 575.835V577.261C117.365 577.693 117.445 578.066 117.604 578.381C117.767 578.695 117.996 578.938 118.291 579.108C118.587 579.278 118.937 579.364 119.342 579.364C119.611 579.364 119.857 579.326 120.081 579.25C120.304 579.174 120.496 579.061 120.655 578.909C120.814 578.758 120.935 578.572 121.018 578.352L123.257 578.5C123.143 579.038 122.911 579.508 122.558 579.909C122.21 580.307 121.759 580.617 121.206 580.841C120.657 581.061 120.022 581.17 119.303 581.17ZM130.484 577.284V572.273H132.905V581H130.581V579.415H130.49C130.293 579.926 129.965 580.337 129.507 580.648C129.053 580.958 128.498 581.114 127.842 581.114C127.259 581.114 126.746 580.981 126.303 580.716C125.859 580.451 125.513 580.074 125.263 579.585C125.017 579.097 124.892 578.511 124.888 577.83V572.273H127.308V577.398C127.312 577.913 127.45 578.32 127.723 578.619C127.996 578.919 128.361 579.068 128.82 579.068C129.111 579.068 129.384 579.002 129.638 578.869C129.892 578.733 130.096 578.532 130.251 578.267C130.411 578.002 130.488 577.674 130.484 577.284ZM137.261 575.955V581H134.841V572.273H137.148V573.812H137.25C137.443 573.305 137.767 572.903 138.222 572.608C138.676 572.309 139.227 572.159 139.875 572.159C140.481 572.159 141.009 572.292 141.46 572.557C141.911 572.822 142.261 573.201 142.511 573.693C142.761 574.182 142.886 574.765 142.886 575.443V581H140.466V575.875C140.47 575.341 140.333 574.924 140.057 574.625C139.78 574.322 139.4 574.17 138.915 574.17C138.589 574.17 138.301 574.241 138.051 574.381C137.805 574.521 137.612 574.725 137.472 574.994C137.335 575.259 137.265 575.58 137.261 575.955ZM144.794 581V572.273H147.214V581H144.794ZM146.01 571.148C145.65 571.148 145.341 571.028 145.084 570.79C144.83 570.547 144.703 570.258 144.703 569.92C144.703 569.587 144.83 569.301 145.084 569.062C145.341 568.82 145.65 568.699 146.01 568.699C146.37 568.699 146.677 568.82 146.93 569.062C147.188 569.301 147.317 569.587 147.317 569.92C147.317 570.258 147.188 570.547 146.93 570.79C146.677 571.028 146.37 571.148 146.01 571.148ZM151.642 581.165C151.085 581.165 150.589 581.068 150.153 580.875C149.718 580.678 149.373 580.388 149.119 580.006C148.869 579.619 148.744 579.138 148.744 578.562C148.744 578.078 148.833 577.67 149.011 577.341C149.189 577.011 149.432 576.746 149.739 576.545C150.045 576.345 150.394 576.193 150.784 576.091C151.178 575.989 151.591 575.917 152.023 575.875C152.53 575.822 152.939 575.773 153.25 575.727C153.561 575.678 153.786 575.606 153.926 575.511C154.066 575.417 154.136 575.277 154.136 575.091V575.057C154.136 574.697 154.023 574.419 153.795 574.222C153.572 574.025 153.254 573.926 152.841 573.926C152.405 573.926 152.059 574.023 151.801 574.216C151.544 574.405 151.373 574.644 151.29 574.932L149.051 574.75C149.165 574.22 149.388 573.761 149.722 573.375C150.055 572.985 150.485 572.686 151.011 572.477C151.542 572.265 152.155 572.159 152.852 572.159C153.337 572.159 153.801 572.216 154.244 572.33C154.691 572.443 155.087 572.619 155.432 572.858C155.78 573.097 156.055 573.403 156.256 573.778C156.456 574.15 156.557 574.595 156.557 575.114V581H154.261V579.79H154.193C154.053 580.062 153.866 580.303 153.631 580.511C153.396 580.716 153.114 580.877 152.784 580.994C152.455 581.108 152.074 581.165 151.642 581.165ZM152.335 579.494C152.691 579.494 153.006 579.424 153.278 579.284C153.551 579.14 153.765 578.947 153.92 578.705C154.076 578.462 154.153 578.187 154.153 577.881V576.955C154.078 577.004 153.973 577.049 153.841 577.091C153.712 577.129 153.566 577.165 153.403 577.199C153.241 577.229 153.078 577.258 152.915 577.284C152.752 577.307 152.604 577.328 152.472 577.347C152.188 577.388 151.939 577.455 151.727 577.545C151.515 577.636 151.35 577.759 151.233 577.915C151.116 578.066 151.057 578.256 151.057 578.483C151.057 578.812 151.176 579.064 151.415 579.239C151.657 579.409 151.964 579.494 152.335 579.494ZM151.318 571.199L149.972 571.182C149.972 570.458 150.15 569.903 150.506 569.517C150.866 569.131 151.303 568.936 151.818 568.932C152.083 568.932 152.311 568.975 152.5 569.062C152.693 569.146 152.866 569.244 153.017 569.358C153.172 569.472 153.32 569.572 153.46 569.659C153.6 569.742 153.752 569.784 153.915 569.784C154.134 569.78 154.301 569.699 154.415 569.54C154.532 569.377 154.591 569.165 154.591 568.903L155.915 568.943C155.907 569.659 155.725 570.212 155.369 570.602C155.013 570.989 154.58 571.184 154.068 571.188C153.784 571.188 153.545 571.146 153.352 571.062C153.163 570.975 152.996 570.877 152.852 570.767C152.708 570.653 152.568 570.553 152.432 570.466C152.295 570.379 152.142 570.335 151.972 570.335C151.775 570.335 151.616 570.413 151.494 570.568C151.377 570.723 151.318 570.934 151.318 571.199ZM162.378 581.17C161.495 581.17 160.732 580.983 160.088 580.608C159.448 580.229 158.954 579.703 158.605 579.028C158.257 578.35 158.082 577.564 158.082 576.67C158.082 575.769 158.257 574.981 158.605 574.307C158.954 573.629 159.448 573.102 160.088 572.727C160.732 572.348 161.495 572.159 162.378 572.159C163.26 572.159 164.022 572.348 164.662 572.727C165.306 573.102 165.802 573.629 166.151 574.307C166.499 574.981 166.673 575.769 166.673 576.67C166.673 577.564 166.499 578.35 166.151 579.028C165.802 579.703 165.306 580.229 164.662 580.608C164.022 580.983 163.26 581.17 162.378 581.17ZM162.389 579.295C162.791 579.295 163.126 579.182 163.395 578.955C163.664 578.723 163.866 578.409 164.003 578.011C164.143 577.614 164.213 577.161 164.213 576.653C164.213 576.146 164.143 575.693 164.003 575.295C163.866 574.898 163.664 574.583 163.395 574.352C163.126 574.121 162.791 574.006 162.389 574.006C161.984 574.006 161.643 574.121 161.366 574.352C161.094 574.583 160.887 574.898 160.747 575.295C160.611 575.693 160.543 576.146 160.543 576.653C160.543 577.161 160.611 577.614 160.747 578.011C160.887 578.409 161.094 578.723 161.366 578.955C161.643 579.182 161.984 579.295 162.389 579.295ZM175.166 581.142C174.503 581.142 173.903 580.972 173.365 580.631C172.831 580.286 172.407 579.78 172.092 579.114C171.782 578.443 171.626 577.621 171.626 576.648C171.626 575.648 171.787 574.816 172.109 574.153C172.431 573.487 172.859 572.989 173.393 572.659C173.931 572.326 174.52 572.159 175.161 572.159C175.649 572.159 176.056 572.242 176.382 572.409C176.712 572.572 176.977 572.777 177.178 573.023C177.382 573.265 177.537 573.504 177.643 573.739H177.717V569.364H180.132V581H177.746V579.602H177.643C177.53 579.845 177.369 580.085 177.161 580.324C176.956 580.559 176.689 580.754 176.359 580.909C176.034 581.064 175.636 581.142 175.166 581.142ZM175.933 579.216C176.323 579.216 176.653 579.11 176.922 578.898C177.195 578.682 177.403 578.381 177.547 577.994C177.695 577.608 177.768 577.155 177.768 576.636C177.768 576.117 177.696 575.667 177.553 575.284C177.409 574.902 177.2 574.606 176.928 574.398C176.655 574.189 176.323 574.085 175.933 574.085C175.536 574.085 175.2 574.193 174.928 574.409C174.655 574.625 174.448 574.924 174.308 575.307C174.168 575.689 174.098 576.133 174.098 576.636C174.098 577.144 174.168 577.593 174.308 577.983C174.452 578.369 174.659 578.672 174.928 578.892C175.2 579.108 175.536 579.216 175.933 579.216ZM186.065 581.17C185.183 581.17 184.42 580.983 183.776 580.608C183.135 580.229 182.641 579.703 182.293 579.028C181.944 578.35 181.77 577.564 181.77 576.67C181.77 575.769 181.944 574.981 182.293 574.307C182.641 573.629 183.135 573.102 183.776 572.727C184.42 572.348 185.183 572.159 186.065 572.159C186.948 572.159 187.709 572.348 188.349 572.727C188.993 573.102 189.49 573.629 189.838 574.307C190.187 574.981 190.361 575.769 190.361 576.67C190.361 577.564 190.187 578.35 189.838 579.028C189.49 579.703 188.993 580.229 188.349 580.608C187.709 580.983 186.948 581.17 186.065 581.17ZM186.077 579.295C186.478 579.295 186.813 579.182 187.082 578.955C187.351 578.723 187.554 578.409 187.69 578.011C187.83 577.614 187.901 577.161 187.901 576.653C187.901 576.146 187.83 575.693 187.69 575.295C187.554 574.898 187.351 574.583 187.082 574.352C186.813 574.121 186.478 574.006 186.077 574.006C185.671 574.006 185.33 574.121 185.054 574.352C184.781 574.583 184.575 574.898 184.435 575.295C184.298 575.693 184.23 576.146 184.23 576.653C184.23 577.161 184.298 577.614 184.435 578.011C184.575 578.409 184.781 578.723 185.054 578.955C185.33 579.182 185.671 579.295 186.077 579.295ZM199.615 581.17C198.717 581.17 197.945 580.989 197.297 580.625C196.653 580.258 196.157 579.739 195.808 579.068C195.46 578.394 195.286 577.597 195.286 576.676C195.286 575.778 195.46 574.991 195.808 574.312C196.157 573.634 196.647 573.106 197.28 572.727C197.916 572.348 198.662 572.159 199.518 572.159C200.094 572.159 200.63 572.252 201.126 572.438C201.626 572.619 202.062 572.894 202.433 573.261C202.808 573.629 203.1 574.091 203.308 574.648C203.517 575.201 203.621 575.848 203.621 576.591V577.256H196.251V575.756H201.342C201.342 575.407 201.267 575.098 201.115 574.83C200.964 574.561 200.753 574.35 200.484 574.199C200.219 574.044 199.911 573.966 199.558 573.966C199.191 573.966 198.865 574.051 198.581 574.222C198.301 574.388 198.081 574.614 197.922 574.898C197.763 575.178 197.681 575.491 197.678 575.835V577.261C197.678 577.693 197.757 578.066 197.916 578.381C198.079 578.695 198.308 578.938 198.604 579.108C198.899 579.278 199.25 579.364 199.655 579.364C199.924 579.364 200.17 579.326 200.393 579.25C200.617 579.174 200.808 579.061 200.967 578.909C201.126 578.758 201.248 578.572 201.331 578.352L203.57 578.5C203.456 579.038 203.223 579.508 202.871 579.909C202.522 580.307 202.071 580.617 201.518 580.841C200.969 581.061 200.335 581.17 199.615 581.17ZM212.462 574.761L210.246 574.898C210.208 574.708 210.126 574.538 210.001 574.386C209.876 574.231 209.712 574.108 209.507 574.017C209.306 573.922 209.066 573.875 208.786 573.875C208.411 573.875 208.094 573.955 207.837 574.114C207.579 574.269 207.45 574.477 207.45 574.739C207.45 574.947 207.534 575.123 207.7 575.267C207.867 575.411 208.153 575.527 208.558 575.614L210.138 575.932C210.986 576.106 211.619 576.386 212.036 576.773C212.452 577.159 212.661 577.667 212.661 578.295C212.661 578.867 212.492 579.369 212.155 579.801C211.821 580.233 211.363 580.57 210.78 580.812C210.2 581.051 209.532 581.17 208.774 581.17C207.619 581.17 206.698 580.93 206.013 580.449C205.331 579.964 204.931 579.305 204.814 578.472L207.195 578.347C207.267 578.699 207.441 578.968 207.717 579.153C207.994 579.335 208.348 579.426 208.78 579.426C209.204 579.426 209.545 579.345 209.803 579.182C210.064 579.015 210.196 578.801 210.2 578.54C210.196 578.32 210.104 578.14 209.922 578C209.74 577.856 209.46 577.746 209.081 577.67L207.57 577.369C206.717 577.199 206.083 576.903 205.666 576.483C205.253 576.062 205.047 575.527 205.047 574.875C205.047 574.314 205.198 573.831 205.501 573.426C205.808 573.021 206.238 572.708 206.791 572.489C207.348 572.269 208 572.159 208.746 572.159C209.848 572.159 210.715 572.392 211.348 572.858C211.984 573.324 212.356 573.958 212.462 574.761ZM218.827 572.273V574.091H213.571V572.273H218.827ZM214.764 570.182H217.185V578.318C217.185 578.542 217.219 578.716 217.287 578.841C217.355 578.962 217.45 579.047 217.571 579.097C217.696 579.146 217.84 579.17 218.003 579.17C218.116 579.17 218.23 579.161 218.344 579.142C218.457 579.119 218.545 579.102 218.605 579.091L218.986 580.892C218.865 580.93 218.694 580.973 218.474 581.023C218.255 581.076 217.988 581.108 217.673 581.119C217.09 581.142 216.579 581.064 216.139 580.886C215.704 580.708 215.365 580.432 215.122 580.057C214.88 579.682 214.76 579.208 214.764 578.636V570.182ZM222.892 581.165C222.335 581.165 221.839 581.068 221.403 580.875C220.968 580.678 220.623 580.388 220.369 580.006C220.119 579.619 219.994 579.138 219.994 578.562C219.994 578.078 220.083 577.67 220.261 577.341C220.439 577.011 220.682 576.746 220.989 576.545C221.295 576.345 221.644 576.193 222.034 576.091C222.428 575.989 222.841 575.917 223.273 575.875C223.78 575.822 224.189 575.773 224.5 575.727C224.811 575.678 225.036 575.606 225.176 575.511C225.316 575.417 225.386 575.277 225.386 575.091V575.057C225.386 574.697 225.273 574.419 225.045 574.222C224.822 574.025 224.504 573.926 224.091 573.926C223.655 573.926 223.309 574.023 223.051 574.216C222.794 574.405 222.623 574.644 222.54 574.932L220.301 574.75C220.415 574.22 220.638 573.761 220.972 573.375C221.305 572.985 221.735 572.686 222.261 572.477C222.792 572.265 223.405 572.159 224.102 572.159C224.587 572.159 225.051 572.216 225.494 572.33C225.941 572.443 226.337 572.619 226.682 572.858C227.03 573.097 227.305 573.403 227.506 573.778C227.706 574.15 227.807 574.595 227.807 575.114V581H225.511V579.79H225.443C225.303 580.062 225.116 580.303 224.881 580.511C224.646 580.716 224.364 580.877 224.034 580.994C223.705 581.108 223.324 581.165 222.892 581.165ZM223.585 579.494C223.941 579.494 224.256 579.424 224.528 579.284C224.801 579.14 225.015 578.947 225.17 578.705C225.326 578.462 225.403 578.187 225.403 577.881V576.955C225.328 577.004 225.223 577.049 225.091 577.091C224.962 577.129 224.816 577.165 224.653 577.199C224.491 577.229 224.328 577.258 224.165 577.284C224.002 577.307 223.854 577.328 223.722 577.347C223.438 577.388 223.189 577.455 222.977 577.545C222.765 577.636 222.6 577.759 222.483 577.915C222.366 578.066 222.307 578.256 222.307 578.483C222.307 578.812 222.426 579.064 222.665 579.239C222.907 579.409 223.214 579.494 223.585 579.494ZM223.324 571.148L224.528 568.562H226.767L225.034 571.148H223.324ZM233.616 584.455C232.832 584.455 232.16 584.347 231.599 584.131C231.043 583.919 230.599 583.629 230.27 583.261C229.94 582.894 229.726 582.481 229.628 582.023L231.866 581.722C231.935 581.896 232.043 582.059 232.19 582.21C232.338 582.362 232.533 582.483 232.776 582.574C233.022 582.669 233.321 582.716 233.673 582.716C234.2 582.716 234.634 582.587 234.974 582.33C235.319 582.076 235.491 581.65 235.491 581.051V579.455H235.389C235.283 579.697 235.124 579.926 234.912 580.142C234.7 580.358 234.427 580.534 234.094 580.67C233.76 580.807 233.363 580.875 232.901 580.875C232.245 580.875 231.649 580.723 231.111 580.42C230.577 580.114 230.151 579.646 229.832 579.017C229.518 578.384 229.361 577.585 229.361 576.619C229.361 575.631 229.522 574.805 229.844 574.142C230.166 573.479 230.594 572.983 231.128 572.653C231.666 572.324 232.255 572.159 232.895 572.159C233.384 572.159 233.793 572.242 234.122 572.409C234.452 572.572 234.717 572.777 234.918 573.023C235.122 573.265 235.279 573.504 235.389 573.739H235.48V572.273H237.884V581.085C237.884 581.828 237.702 582.449 237.338 582.949C236.974 583.449 236.471 583.824 235.827 584.074C235.187 584.328 234.45 584.455 233.616 584.455ZM233.668 579.057C234.058 579.057 234.387 578.96 234.656 578.767C234.929 578.57 235.137 578.29 235.281 577.926C235.429 577.559 235.503 577.119 235.503 576.608C235.503 576.097 235.431 575.653 235.287 575.278C235.143 574.9 234.935 574.606 234.662 574.398C234.389 574.189 234.058 574.085 233.668 574.085C233.27 574.085 232.935 574.193 232.662 574.409C232.389 574.621 232.183 574.917 232.043 575.295C231.902 575.674 231.832 576.112 231.832 576.608C231.832 577.112 231.902 577.547 232.043 577.915C232.187 578.278 232.393 578.561 232.662 578.761C232.935 578.958 233.27 579.057 233.668 579.057ZM239.81 581V572.273H242.23V581H239.81ZM241.026 571.148C240.666 571.148 240.357 571.028 240.099 570.79C239.846 570.547 239.719 570.258 239.719 569.92C239.719 569.587 239.846 569.301 240.099 569.062C240.357 568.82 240.666 568.699 241.026 568.699C241.385 568.699 241.692 568.82 241.946 569.062C242.204 569.301 242.332 569.587 242.332 569.92C242.332 570.258 242.204 570.547 241.946 570.79C241.692 571.028 241.385 571.148 241.026 571.148ZM248.112 581.17C247.23 581.17 246.466 580.983 245.822 580.608C245.182 580.229 244.688 579.703 244.339 579.028C243.991 578.35 243.817 577.564 243.817 576.67C243.817 575.769 243.991 574.981 244.339 574.307C244.688 573.629 245.182 573.102 245.822 572.727C246.466 572.348 247.23 572.159 248.112 572.159C248.995 572.159 249.756 572.348 250.396 572.727C251.04 573.102 251.536 573.629 251.885 574.307C252.233 574.981 252.408 575.769 252.408 576.67C252.408 577.564 252.233 578.35 251.885 579.028C251.536 579.703 251.04 580.229 250.396 580.608C249.756 580.983 248.995 581.17 248.112 581.17ZM248.124 579.295C248.525 579.295 248.86 579.182 249.129 578.955C249.398 578.723 249.601 578.409 249.737 578.011C249.877 577.614 249.947 577.161 249.947 576.653C249.947 576.146 249.877 575.693 249.737 575.295C249.601 574.898 249.398 574.583 249.129 574.352C248.86 574.121 248.525 574.006 248.124 574.006C247.718 574.006 247.377 574.121 247.101 574.352C246.828 574.583 246.622 574.898 246.482 575.295C246.345 575.693 246.277 576.146 246.277 576.653C246.277 577.161 246.345 577.614 246.482 578.011C246.622 578.409 246.828 578.723 247.101 578.955C247.377 579.182 247.718 579.295 248.124 579.295Z" fill="#022B3A"/>
<rect x="63" y="566" width="20" height="20" rx="1" stroke="#022B3A" stroke-width="2"/>
<path d="M537.5 580.55V583.083C537.5 583.317 537.683 583.5 537.917 583.5H540.45C540.558 583.5 540.667 583.458 540.742 583.375L549.842 574.283L546.717 571.158L537.625 580.25C537.542 580.333 537.5 580.433 537.5 580.55ZM552.258 571.867C552.336 571.79 552.397 571.698 552.439 571.597C552.481 571.496 552.502 571.388 552.502 571.279C552.502 571.17 552.481 571.062 552.439 570.961C552.397 570.86 552.336 570.769 552.258 570.692L550.308 568.742C550.231 568.664 550.14 568.603 550.039 568.561C549.938 568.519 549.83 568.498 549.721 568.498C549.612 568.498 549.504 568.519 549.403 568.561C549.302 568.603 549.21 568.664 549.133 568.742L547.608 570.267L550.733 573.392L552.258 571.867Z" fill="#022B3A"/>
<path d="M576.833 570.167L565.167 581.833" stroke="#022B3A" stroke-width="2" stroke-linecap="round"/>
<path d="M565.167 570.167L576.833 581.833" stroke="#022B3A" stroke-width="2" stroke-linecap="round"/>
<rect x="49" y="409" width="380" height="47" rx="4" fill="white" stroke="#022B3A" stroke-width="2"/>
<path d="M83.7443 426.364V438H81.6193L76.5568 430.676H76.4716V438H74.0114V426.364H76.1705L81.1932 433.682H81.2955V426.364H83.7443ZM89.6747 438.17C88.7921 438.17 88.0289 437.983 87.3849 437.608C86.7448 437.229 86.2505 436.703 85.902 436.028C85.5535 435.35 85.3793 434.564 85.3793 433.67C85.3793 432.769 85.5535 431.981 85.902 431.307C86.2505 430.629 86.7448 430.102 87.3849 429.727C88.0289 429.348 88.7921 429.159 89.6747 429.159C90.5573 429.159 91.3187 429.348 91.9588 429.727C92.6027 430.102 93.099 430.629 93.4474 431.307C93.7959 431.981 93.9702 432.769 93.9702 433.67C93.9702 434.564 93.7959 435.35 93.4474 436.028C93.099 436.703 92.6027 437.229 91.9588 437.608C91.3187 437.983 90.5573 438.17 89.6747 438.17ZM89.6861 436.295C90.0876 436.295 90.4228 436.182 90.6918 435.955C90.9607 435.723 91.1634 435.409 91.2997 435.011C91.4399 434.614 91.5099 434.161 91.5099 433.653C91.5099 433.146 91.4399 432.693 91.2997 432.295C91.1634 431.898 90.9607 431.583 90.6918 431.352C90.4228 431.121 90.0876 431.006 89.6861 431.006C89.2808 431.006 88.9399 431.121 88.6634 431.352C88.3906 431.583 88.1842 431.898 88.044 432.295C87.9077 432.693 87.8395 433.146 87.8395 433.653C87.8395 434.161 87.9077 434.614 88.044 435.011C88.1842 435.409 88.3906 435.723 88.6634 435.955C88.9399 436.182 89.2808 436.295 89.6861 436.295ZM103.399 429.273L100.348 438H97.6207L94.5696 429.273H97.1264L98.9389 435.517H99.0298L100.837 429.273H103.399ZM106.892 438.165C106.335 438.165 105.839 438.068 105.403 437.875C104.968 437.678 104.623 437.388 104.369 437.006C104.119 436.619 103.994 436.138 103.994 435.562C103.994 435.078 104.083 434.67 104.261 434.341C104.439 434.011 104.682 433.746 104.989 433.545C105.295 433.345 105.644 433.193 106.034 433.091C106.428 432.989 106.841 432.917 107.273 432.875C107.78 432.822 108.189 432.773 108.5 432.727C108.811 432.678 109.036 432.606 109.176 432.511C109.316 432.417 109.386 432.277 109.386 432.091V432.057C109.386 431.697 109.273 431.419 109.045 431.222C108.822 431.025 108.504 430.926 108.091 430.926C107.655 430.926 107.309 431.023 107.051 431.216C106.794 431.405 106.623 431.644 106.54 431.932L104.301 431.75C104.415 431.22 104.638 430.761 104.972 430.375C105.305 429.985 105.735 429.686 106.261 429.477C106.792 429.265 107.405 429.159 108.102 429.159C108.587 429.159 109.051 429.216 109.494 429.33C109.941 429.443 110.337 429.619 110.682 429.858C111.03 430.097 111.305 430.403 111.506 430.778C111.706 431.15 111.807 431.595 111.807 432.114V438H109.511V436.79H109.443C109.303 437.062 109.116 437.303 108.881 437.511C108.646 437.716 108.364 437.877 108.034 437.994C107.705 438.108 107.324 438.165 106.892 438.165ZM107.585 436.494C107.941 436.494 108.256 436.424 108.528 436.284C108.801 436.14 109.015 435.947 109.17 435.705C109.326 435.462 109.403 435.187 109.403 434.881V433.955C109.328 434.004 109.223 434.049 109.091 434.091C108.962 434.129 108.816 434.165 108.653 434.199C108.491 434.229 108.328 434.258 108.165 434.284C108.002 434.307 107.854 434.328 107.722 434.347C107.438 434.388 107.189 434.455 106.977 434.545C106.765 434.636 106.6 434.759 106.483 434.915C106.366 435.066 106.307 435.256 106.307 435.483C106.307 435.812 106.426 436.064 106.665 436.239C106.907 436.409 107.214 436.494 107.585 436.494ZM122.03 429.273V431.091H116.774V429.273H122.03ZM117.967 427.182H120.388V435.318C120.388 435.542 120.422 435.716 120.49 435.841C120.558 435.962 120.653 436.047 120.774 436.097C120.899 436.146 121.043 436.17 121.206 436.17C121.32 436.17 121.433 436.161 121.547 436.142C121.661 436.119 121.748 436.102 121.808 436.091L122.189 437.892C122.068 437.93 121.897 437.973 121.678 438.023C121.458 438.076 121.191 438.108 120.876 438.119C120.293 438.142 119.782 438.064 119.342 437.886C118.907 437.708 118.568 437.432 118.325 437.057C118.083 436.682 117.964 436.208 117.967 435.636V427.182ZM126.095 438.165C125.538 438.165 125.042 438.068 124.607 437.875C124.171 437.678 123.826 437.388 123.572 437.006C123.322 436.619 123.197 436.138 123.197 435.562C123.197 435.078 123.286 434.67 123.464 434.341C123.643 434.011 123.885 433.746 124.192 433.545C124.499 433.345 124.847 433.193 125.237 433.091C125.631 432.989 126.044 432.917 126.476 432.875C126.983 432.822 127.393 432.773 127.703 432.727C128.014 432.678 128.239 432.606 128.379 432.511C128.519 432.417 128.589 432.277 128.589 432.091V432.057C128.589 431.697 128.476 431.419 128.249 431.222C128.025 431.025 127.707 430.926 127.294 430.926C126.858 430.926 126.512 431.023 126.254 431.216C125.997 431.405 125.826 431.644 125.743 431.932L123.504 431.75C123.618 431.22 123.841 430.761 124.175 430.375C124.508 429.985 124.938 429.686 125.464 429.477C125.995 429.265 126.608 429.159 127.305 429.159C127.79 429.159 128.254 429.216 128.697 429.33C129.144 429.443 129.54 429.619 129.885 429.858C130.233 430.097 130.508 430.403 130.709 430.778C130.91 431.15 131.01 431.595 131.01 432.114V438H128.714V436.79H128.646C128.506 437.062 128.319 437.303 128.084 437.511C127.849 437.716 127.567 437.877 127.237 437.994C126.908 438.108 126.527 438.165 126.095 438.165ZM126.788 436.494C127.144 436.494 127.459 436.424 127.732 436.284C128.004 436.14 128.218 435.947 128.374 435.705C128.529 435.462 128.607 435.187 128.607 434.881V433.955C128.531 434.004 128.427 434.049 128.294 434.091C128.165 434.129 128.019 434.165 127.857 434.199C127.694 434.229 127.531 434.258 127.368 434.284C127.205 434.307 127.057 434.328 126.925 434.347C126.641 434.388 126.393 434.455 126.18 434.545C125.968 434.636 125.804 434.759 125.686 434.915C125.569 435.066 125.51 435.256 125.51 435.483C125.51 435.812 125.629 436.064 125.868 436.239C126.11 436.409 126.417 436.494 126.788 436.494ZM132.888 438V429.273H135.234V430.795H135.325C135.484 430.254 135.751 429.845 136.126 429.568C136.501 429.288 136.933 429.148 137.422 429.148C137.543 429.148 137.674 429.155 137.814 429.17C137.954 429.186 138.077 429.206 138.183 429.233V431.381C138.07 431.347 137.912 431.316 137.712 431.29C137.511 431.263 137.327 431.25 137.161 431.25C136.804 431.25 136.486 431.328 136.206 431.483C135.929 431.634 135.71 431.847 135.547 432.119C135.388 432.392 135.308 432.706 135.308 433.062V438H132.888ZM143.006 438.17C142.108 438.17 141.335 437.989 140.688 437.625C140.044 437.258 139.547 436.739 139.199 436.068C138.85 435.394 138.676 434.597 138.676 433.676C138.676 432.778 138.85 431.991 139.199 431.312C139.547 430.634 140.038 430.106 140.67 429.727C141.307 429.348 142.053 429.159 142.909 429.159C143.485 429.159 144.021 429.252 144.517 429.438C145.017 429.619 145.453 429.894 145.824 430.261C146.199 430.629 146.491 431.091 146.699 431.648C146.907 432.201 147.011 432.848 147.011 433.591V434.256H139.642V432.756H144.733C144.733 432.407 144.657 432.098 144.506 431.83C144.354 431.561 144.144 431.35 143.875 431.199C143.61 431.044 143.301 430.966 142.949 430.966C142.581 430.966 142.256 431.051 141.972 431.222C141.691 431.388 141.472 431.614 141.312 431.898C141.153 432.178 141.072 432.491 141.068 432.835V434.261C141.068 434.693 141.148 435.066 141.307 435.381C141.47 435.695 141.699 435.938 141.994 436.108C142.29 436.278 142.64 436.364 143.045 436.364C143.314 436.364 143.561 436.326 143.784 436.25C144.008 436.174 144.199 436.061 144.358 435.909C144.517 435.758 144.638 435.572 144.722 435.352L146.96 435.5C146.847 436.038 146.614 436.508 146.261 436.909C145.913 437.307 145.462 437.617 144.909 437.841C144.36 438.061 143.725 438.17 143.006 438.17ZM153.284 429.273V431.091H147.898V429.273H153.284ZM149.131 438V428.642C149.131 428.009 149.254 427.485 149.5 427.068C149.75 426.652 150.091 426.339 150.523 426.131C150.955 425.922 151.445 425.818 151.994 425.818C152.366 425.818 152.705 425.847 153.011 425.903C153.322 425.96 153.553 426.011 153.705 426.057L153.273 427.875C153.178 427.845 153.061 427.816 152.92 427.79C152.784 427.763 152.644 427.75 152.5 427.75C152.144 427.75 151.896 427.833 151.756 428C151.616 428.163 151.545 428.392 151.545 428.688V438H149.131ZM156.939 438.165C156.382 438.165 155.886 438.068 155.45 437.875C155.015 437.678 154.67 437.388 154.416 437.006C154.166 436.619 154.041 436.138 154.041 435.562C154.041 435.078 154.13 434.67 154.308 434.341C154.486 434.011 154.729 433.746 155.036 433.545C155.342 433.345 155.691 433.193 156.081 433.091C156.475 432.989 156.888 432.917 157.32 432.875C157.827 432.822 158.236 432.773 158.547 432.727C158.857 432.678 159.083 432.606 159.223 432.511C159.363 432.417 159.433 432.277 159.433 432.091V432.057C159.433 431.697 159.32 431.419 159.092 431.222C158.869 431.025 158.551 430.926 158.138 430.926C157.702 430.926 157.356 431.023 157.098 431.216C156.84 431.405 156.67 431.644 156.587 431.932L154.348 431.75C154.462 431.22 154.685 430.761 155.018 430.375C155.352 429.985 155.782 429.686 156.308 429.477C156.839 429.265 157.452 429.159 158.149 429.159C158.634 429.159 159.098 429.216 159.541 429.33C159.988 429.443 160.384 429.619 160.729 429.858C161.077 430.097 161.352 430.403 161.553 430.778C161.753 431.15 161.854 431.595 161.854 432.114V438H159.558V436.79H159.49C159.35 437.062 159.162 437.303 158.928 437.511C158.693 437.716 158.411 437.877 158.081 437.994C157.751 438.108 157.371 438.165 156.939 438.165ZM157.632 436.494C157.988 436.494 158.303 436.424 158.575 436.284C158.848 436.14 159.062 435.947 159.217 435.705C159.373 435.462 159.45 435.187 159.45 434.881V433.955C159.375 434.004 159.27 434.049 159.138 434.091C159.009 434.129 158.863 434.165 158.7 434.199C158.537 434.229 158.375 434.258 158.212 434.284C158.049 434.307 157.901 434.328 157.768 434.347C157.484 434.388 157.236 434.455 157.024 434.545C156.812 434.636 156.647 434.759 156.53 434.915C156.412 435.066 156.354 435.256 156.354 435.483C156.354 435.812 156.473 436.064 156.712 436.239C156.954 436.409 157.261 436.494 157.632 436.494Z" fill="#919191"/>
<rect x="48" y="623" width="547.261" height="50" rx="5" fill="#E1E5F2"/>
<path d="M105.011 653V641.364H109.602C110.481 641.364 111.231 641.521 111.852 641.835C112.477 642.146 112.953 642.587 113.278 643.159C113.608 643.727 113.773 644.396 113.773 645.165C113.773 645.937 113.606 646.602 113.273 647.159C112.939 647.712 112.456 648.136 111.824 648.432C111.195 648.727 110.434 648.875 109.54 648.875H106.466V646.898H109.142C109.612 646.898 110.002 646.833 110.312 646.705C110.623 646.576 110.854 646.383 111.006 646.125C111.161 645.867 111.239 645.547 111.239 645.165C111.239 644.778 111.161 644.453 111.006 644.188C110.854 643.922 110.621 643.722 110.307 643.585C109.996 643.445 109.604 643.375 109.131 643.375H107.472V653H105.011ZM111.295 647.705L114.188 653H111.472L108.642 647.705H111.295ZM119.303 653.17C118.405 653.17 117.632 652.989 116.984 652.625C116.34 652.258 115.844 651.739 115.496 651.068C115.147 650.394 114.973 649.597 114.973 648.676C114.973 647.778 115.147 646.991 115.496 646.312C115.844 645.634 116.335 645.106 116.967 644.727C117.604 644.348 118.35 644.159 119.206 644.159C119.782 644.159 120.318 644.252 120.814 644.438C121.314 644.619 121.75 644.894 122.121 645.261C122.496 645.629 122.787 646.091 122.996 646.648C123.204 647.201 123.308 647.848 123.308 648.591V649.256H115.939V647.756H121.03C121.03 647.407 120.954 647.098 120.803 646.83C120.651 646.561 120.441 646.35 120.172 646.199C119.907 646.044 119.598 645.966 119.246 645.966C118.878 645.966 118.553 646.051 118.268 646.222C117.988 646.388 117.768 646.614 117.609 646.898C117.45 647.178 117.369 647.491 117.365 647.835V649.261C117.365 649.693 117.445 650.066 117.604 650.381C117.767 650.695 117.996 650.938 118.291 651.108C118.587 651.278 118.937 651.364 119.342 651.364C119.611 651.364 119.857 651.326 120.081 651.25C120.304 651.174 120.496 651.061 120.655 650.909C120.814 650.758 120.935 650.572 121.018 650.352L123.257 650.5C123.143 651.038 122.911 651.508 122.558 651.909C122.21 652.307 121.759 652.617 121.206 652.841C120.657 653.061 120.022 653.17 119.303 653.17ZM132.79 644.273L129.739 653H127.011L123.96 644.273H126.517L128.33 650.517H128.42L130.227 644.273H132.79ZM134.028 653V644.273H136.449V653H134.028ZM135.244 643.148C134.884 643.148 134.576 643.028 134.318 642.79C134.064 642.547 133.938 642.258 133.938 641.92C133.938 641.587 134.064 641.301 134.318 641.062C134.576 640.82 134.884 640.699 135.244 640.699C135.604 640.699 135.911 640.82 136.165 641.062C136.422 641.301 136.551 641.587 136.551 641.92C136.551 642.258 136.422 642.547 136.165 642.79C135.911 643.028 135.604 643.148 135.244 643.148ZM142.365 653.17C141.467 653.17 140.695 652.989 140.047 652.625C139.403 652.258 138.907 651.739 138.558 651.068C138.21 650.394 138.036 649.597 138.036 648.676C138.036 647.778 138.21 646.991 138.558 646.312C138.907 645.634 139.397 645.106 140.03 644.727C140.666 644.348 141.412 644.159 142.268 644.159C142.844 644.159 143.38 644.252 143.876 644.438C144.376 644.619 144.812 644.894 145.183 645.261C145.558 645.629 145.85 646.091 146.058 646.648C146.267 647.201 146.371 647.848 146.371 648.591V649.256H139.001V647.756H144.092C144.092 647.407 144.017 647.098 143.865 646.83C143.714 646.561 143.503 646.35 143.234 646.199C142.969 646.044 142.661 645.966 142.308 645.966C141.941 645.966 141.615 646.051 141.331 646.222C141.051 646.388 140.831 646.614 140.672 646.898C140.513 647.178 140.431 647.491 140.428 647.835V649.261C140.428 649.693 140.507 650.066 140.666 650.381C140.829 650.695 141.058 650.938 141.354 651.108C141.649 651.278 142 651.364 142.405 651.364C142.674 651.364 142.92 651.326 143.143 651.25C143.367 651.174 143.558 651.061 143.717 650.909C143.876 650.758 143.998 650.572 144.081 650.352L146.32 650.5C146.206 651.038 145.973 651.508 145.621 651.909C145.272 652.307 144.821 652.617 144.268 652.841C143.719 653.061 143.085 653.17 142.365 653.17ZM149.609 653L147.234 644.273H149.683L151.036 650.136H151.115L152.524 644.273H154.928L156.359 650.102H156.433L157.763 644.273H160.206L157.837 653H155.274L153.774 647.511H153.666L152.166 653H149.609ZM168.416 653.142C167.753 653.142 167.153 652.972 166.615 652.631C166.081 652.286 165.657 651.78 165.342 651.114C165.032 650.443 164.876 649.621 164.876 648.648C164.876 647.648 165.037 646.816 165.359 646.153C165.681 645.487 166.109 644.989 166.643 644.659C167.181 644.326 167.77 644.159 168.411 644.159C168.899 644.159 169.306 644.242 169.632 644.409C169.962 644.572 170.227 644.777 170.428 645.023C170.632 645.265 170.787 645.504 170.893 645.739H170.967V641.364H173.382V653H170.996V651.602H170.893C170.78 651.845 170.619 652.085 170.411 652.324C170.206 652.559 169.939 652.754 169.609 652.909C169.284 653.064 168.886 653.142 168.416 653.142ZM169.183 651.216C169.573 651.216 169.903 651.11 170.172 650.898C170.445 650.682 170.653 650.381 170.797 649.994C170.945 649.608 171.018 649.155 171.018 648.636C171.018 648.117 170.946 647.667 170.803 647.284C170.659 646.902 170.45 646.606 170.178 646.398C169.905 646.189 169.573 646.085 169.183 646.085C168.786 646.085 168.45 646.193 168.178 646.409C167.905 646.625 167.698 646.924 167.558 647.307C167.418 647.689 167.348 648.133 167.348 648.636C167.348 649.144 167.418 649.593 167.558 649.983C167.702 650.369 167.909 650.672 168.178 650.892C168.45 651.108 168.786 651.216 169.183 651.216ZM177.861 653.165C177.304 653.165 176.808 653.068 176.372 652.875C175.937 652.678 175.592 652.388 175.338 652.006C175.088 651.619 174.963 651.138 174.963 650.562C174.963 650.078 175.052 649.67 175.23 649.341C175.408 649.011 175.651 648.746 175.957 648.545C176.264 648.345 176.613 648.193 177.003 648.091C177.397 647.989 177.81 647.917 178.241 647.875C178.749 647.822 179.158 647.773 179.469 647.727C179.779 647.678 180.005 647.606 180.145 647.511C180.285 647.417 180.355 647.277 180.355 647.091V647.057C180.355 646.697 180.241 646.419 180.014 646.222C179.791 646.025 179.473 645.926 179.06 645.926C178.624 645.926 178.277 646.023 178.02 646.216C177.762 646.405 177.592 646.644 177.509 646.932L175.27 646.75C175.384 646.22 175.607 645.761 175.94 645.375C176.274 644.985 176.704 644.686 177.23 644.477C177.76 644.265 178.374 644.159 179.071 644.159C179.556 644.159 180.02 644.216 180.463 644.33C180.91 644.443 181.306 644.619 181.651 644.858C181.999 645.097 182.274 645.403 182.474 645.778C182.675 646.15 182.776 646.595 182.776 647.114V653H180.48V651.79H180.412C180.272 652.062 180.084 652.303 179.849 652.511C179.615 652.716 179.332 652.877 179.003 652.994C178.673 653.108 178.293 653.165 177.861 653.165ZM178.554 651.494C178.91 651.494 179.224 651.424 179.497 651.284C179.77 651.14 179.984 650.947 180.139 650.705C180.295 650.462 180.372 650.187 180.372 649.881V648.955C180.296 649.004 180.192 649.049 180.06 649.091C179.931 649.129 179.785 649.165 179.622 649.199C179.459 649.229 179.296 649.258 179.134 649.284C178.971 649.307 178.823 649.328 178.69 649.347C178.406 649.388 178.158 649.455 177.946 649.545C177.734 649.636 177.569 649.759 177.452 649.915C177.334 650.066 177.276 650.256 177.276 650.483C177.276 650.812 177.395 651.064 177.634 651.239C177.876 651.409 178.183 651.494 178.554 651.494ZM188.402 653V641.364H190.822V645.739H190.896C191.002 645.504 191.156 645.265 191.357 645.023C191.561 644.777 191.826 644.572 192.152 644.409C192.482 644.242 192.891 644.159 193.379 644.159C194.016 644.159 194.603 644.326 195.141 644.659C195.679 644.989 196.108 645.487 196.43 646.153C196.752 646.816 196.913 647.648 196.913 648.648C196.913 649.621 196.756 650.443 196.442 651.114C196.131 651.78 195.707 652.286 195.169 652.631C194.635 652.972 194.036 653.142 193.374 653.142C192.904 653.142 192.504 653.064 192.175 652.909C191.849 652.754 191.582 652.559 191.374 652.324C191.165 652.085 191.006 651.845 190.896 651.602H190.788V653H188.402ZM190.771 648.636C190.771 649.155 190.843 649.608 190.987 649.994C191.131 650.381 191.339 650.682 191.612 650.898C191.885 651.11 192.216 651.216 192.607 651.216C193 651.216 193.334 651.108 193.607 650.892C193.879 650.672 194.086 650.369 194.226 649.983C194.37 649.593 194.442 649.144 194.442 648.636C194.442 648.133 194.372 647.689 194.232 647.307C194.091 646.924 193.885 646.625 193.612 646.409C193.339 646.193 193.004 646.085 192.607 646.085C192.213 646.085 191.879 646.189 191.607 646.398C191.338 646.606 191.131 646.902 190.987 647.284C190.843 647.667 190.771 648.117 190.771 648.636ZM198.528 653V644.273H200.875V645.795H200.966C201.125 645.254 201.392 644.845 201.767 644.568C202.142 644.288 202.574 644.148 203.062 644.148C203.184 644.148 203.314 644.155 203.455 644.17C203.595 644.186 203.718 644.206 203.824 644.233V646.381C203.71 646.347 203.553 646.316 203.352 646.29C203.152 646.263 202.968 646.25 202.801 646.25C202.445 646.25 202.127 646.328 201.847 646.483C201.57 646.634 201.35 646.847 201.188 647.119C201.028 647.392 200.949 647.706 200.949 648.062V653H198.528ZM207.314 653.165C206.757 653.165 206.261 653.068 205.825 652.875C205.39 652.678 205.045 652.388 204.791 652.006C204.541 651.619 204.416 651.138 204.416 650.562C204.416 650.078 204.505 649.67 204.683 649.341C204.861 649.011 205.104 648.746 205.411 648.545C205.717 648.345 206.066 648.193 206.456 648.091C206.85 647.989 207.263 647.917 207.695 647.875C208.202 647.822 208.611 647.773 208.922 647.727C209.232 647.678 209.458 647.606 209.598 647.511C209.738 647.417 209.808 647.277 209.808 647.091V647.057C209.808 646.697 209.695 646.419 209.467 646.222C209.244 646.025 208.926 645.926 208.513 645.926C208.077 645.926 207.731 646.023 207.473 646.216C207.215 646.405 207.045 646.644 206.962 646.932L204.723 646.75C204.837 646.22 205.06 645.761 205.393 645.375C205.727 644.985 206.157 644.686 206.683 644.477C207.214 644.265 207.827 644.159 208.524 644.159C209.009 644.159 209.473 644.216 209.916 644.33C210.363 644.443 210.759 644.619 211.104 644.858C211.452 645.097 211.727 645.403 211.928 645.778C212.128 646.15 212.229 646.595 212.229 647.114V653H209.933V651.79H209.865C209.725 652.062 209.537 652.303 209.303 652.511C209.068 652.716 208.786 652.877 208.456 652.994C208.126 653.108 207.746 653.165 207.314 653.165ZM208.007 651.494C208.363 651.494 208.678 651.424 208.95 651.284C209.223 651.14 209.437 650.947 209.592 650.705C209.748 650.462 209.825 650.187 209.825 649.881V648.955C209.75 649.004 209.645 649.049 209.513 649.091C209.384 649.129 209.238 649.165 209.075 649.199C208.912 649.229 208.75 649.258 208.587 649.284C208.424 649.307 208.276 649.328 208.143 649.347C207.859 649.388 207.611 649.455 207.399 649.545C207.187 649.636 207.022 649.759 206.905 649.915C206.787 650.066 206.729 650.256 206.729 650.483C206.729 650.812 206.848 651.064 207.087 651.239C207.329 651.409 207.636 651.494 208.007 651.494ZM216.527 647.955V653H214.107V644.273H216.413V645.812H216.516C216.709 645.305 217.033 644.903 217.487 644.608C217.942 644.309 218.493 644.159 219.141 644.159C219.747 644.159 220.275 644.292 220.726 644.557C221.177 644.822 221.527 645.201 221.777 645.693C222.027 646.182 222.152 646.765 222.152 647.443V653H219.732V647.875C219.735 647.341 219.599 646.924 219.322 646.625C219.046 646.322 218.665 646.17 218.18 646.17C217.855 646.17 217.567 646.241 217.317 646.381C217.071 646.521 216.877 646.725 216.737 646.994C216.601 647.259 216.531 647.58 216.527 647.955ZM228.003 653.17C227.109 653.17 226.34 652.981 225.696 652.602C225.056 652.22 224.563 651.689 224.219 651.011C223.878 650.333 223.707 649.553 223.707 648.67C223.707 647.777 223.88 646.992 224.224 646.318C224.573 645.64 225.067 645.112 225.707 644.733C226.348 644.35 227.109 644.159 227.991 644.159C228.753 644.159 229.42 644.297 229.991 644.574C230.563 644.85 231.016 645.239 231.349 645.739C231.683 646.239 231.866 646.826 231.901 647.5H229.616C229.552 647.064 229.382 646.714 229.105 646.449C228.832 646.18 228.474 646.045 228.031 646.045C227.656 646.045 227.329 646.148 227.048 646.352C226.772 646.553 226.556 646.847 226.401 647.233C226.245 647.619 226.168 648.087 226.168 648.636C226.168 649.193 226.243 649.667 226.395 650.057C226.55 650.447 226.768 650.744 227.048 650.949C227.329 651.153 227.656 651.256 228.031 651.256C228.308 651.256 228.556 651.199 228.776 651.085C228.999 650.972 229.183 650.807 229.327 650.591C229.474 650.371 229.571 650.108 229.616 649.801H231.901C231.863 650.468 231.681 651.055 231.355 651.562C231.033 652.066 230.588 652.46 230.02 652.744C229.452 653.028 228.779 653.17 228.003 653.17ZM235.871 647.955V653H233.45V641.364H235.803V645.812H235.905C236.102 645.297 236.42 644.894 236.859 644.602C237.299 644.307 237.85 644.159 238.513 644.159C239.119 644.159 239.647 644.292 240.098 644.557C240.553 644.818 240.905 645.195 241.155 645.688C241.409 646.176 241.534 646.761 241.53 647.443V653H239.109V647.875C239.113 647.337 238.977 646.919 238.7 646.619C238.428 646.32 238.045 646.17 237.553 646.17C237.223 646.17 236.931 646.241 236.678 646.381C236.428 646.521 236.231 646.725 236.087 646.994C235.946 647.259 235.875 647.58 235.871 647.955ZM250.354 653.142C249.691 653.142 249.09 652.972 248.553 652.631C248.018 652.286 247.594 651.78 247.28 651.114C246.969 650.443 246.814 649.621 246.814 648.648C246.814 647.648 246.975 646.816 247.297 646.153C247.619 645.487 248.047 644.989 248.581 644.659C249.119 644.326 249.708 644.159 250.348 644.159C250.837 644.159 251.244 644.242 251.57 644.409C251.899 644.572 252.164 644.777 252.365 645.023C252.57 645.265 252.725 645.504 252.831 645.739H252.905V641.364H255.32V653H252.933V651.602H252.831C252.717 651.845 252.556 652.085 252.348 652.324C252.143 652.559 251.876 652.754 251.547 652.909C251.221 653.064 250.823 653.142 250.354 653.142ZM251.121 651.216C251.511 651.216 251.84 651.11 252.109 650.898C252.382 650.682 252.59 650.381 252.734 649.994C252.882 649.608 252.956 649.155 252.956 648.636C252.956 648.117 252.884 647.667 252.74 647.284C252.596 646.902 252.388 646.606 252.115 646.398C251.842 646.189 251.511 646.085 251.121 646.085C250.723 646.085 250.388 646.193 250.115 646.409C249.842 646.625 249.636 646.924 249.496 647.307C249.356 647.689 249.286 648.133 249.286 648.636C249.286 649.144 249.356 649.593 249.496 649.983C249.64 650.369 249.846 650.672 250.115 650.892C250.388 651.108 250.723 651.216 251.121 651.216ZM261.287 653.17C260.389 653.17 259.616 652.989 258.969 652.625C258.325 652.258 257.829 651.739 257.48 651.068C257.132 650.394 256.957 649.597 256.957 648.676C256.957 647.778 257.132 646.991 257.48 646.312C257.829 645.634 258.319 645.106 258.952 644.727C259.588 644.348 260.334 644.159 261.19 644.159C261.766 644.159 262.302 644.252 262.798 644.438C263.298 644.619 263.734 644.894 264.105 645.261C264.48 645.629 264.772 646.091 264.98 646.648C265.188 647.201 265.293 647.848 265.293 648.591V649.256H257.923V647.756H263.014C263.014 647.407 262.938 647.098 262.787 646.83C262.635 646.561 262.425 646.35 262.156 646.199C261.891 646.044 261.582 645.966 261.23 645.966C260.863 645.966 260.537 646.051 260.253 646.222C259.973 646.388 259.753 646.614 259.594 646.898C259.435 647.178 259.353 647.491 259.349 647.835V649.261C259.349 649.693 259.429 650.066 259.588 650.381C259.751 650.695 259.98 650.938 260.276 651.108C260.571 651.278 260.921 651.364 261.327 651.364C261.596 651.364 261.842 651.326 262.065 651.25C262.289 651.174 262.48 651.061 262.639 650.909C262.798 650.758 262.92 650.572 263.003 650.352L265.241 650.5C265.128 651.038 264.895 651.508 264.543 651.909C264.194 652.307 263.743 652.617 263.19 652.841C262.641 653.061 262.007 653.17 261.287 653.17ZM270.621 653V641.364H273.081V650.972H278.07V653H270.621ZM282.142 653.165C281.585 653.165 281.089 653.068 280.653 652.875C280.218 652.678 279.873 652.388 279.619 652.006C279.369 651.619 279.244 651.138 279.244 650.562C279.244 650.078 279.333 649.67 279.511 649.341C279.689 649.011 279.932 648.746 280.239 648.545C280.545 648.345 280.894 648.193 281.284 648.091C281.678 647.989 282.091 647.917 282.523 647.875C283.03 647.822 283.439 647.773 283.75 647.727C284.061 647.678 284.286 647.606 284.426 647.511C284.566 647.417 284.636 647.277 284.636 647.091V647.057C284.636 646.697 284.523 646.419 284.295 646.222C284.072 646.025 283.754 645.926 283.341 645.926C282.905 645.926 282.559 646.023 282.301 646.216C282.044 646.405 281.873 646.644 281.79 646.932L279.551 646.75C279.665 646.22 279.888 645.761 280.222 645.375C280.555 644.985 280.985 644.686 281.511 644.477C282.042 644.265 282.655 644.159 283.352 644.159C283.837 644.159 284.301 644.216 284.744 644.33C285.191 644.443 285.587 644.619 285.932 644.858C286.28 645.097 286.555 645.403 286.756 645.778C286.956 646.15 287.057 646.595 287.057 647.114V653H284.761V651.79H284.693C284.553 652.062 284.366 652.303 284.131 652.511C283.896 652.716 283.614 652.877 283.284 652.994C282.955 653.108 282.574 653.165 282.142 653.165ZM282.835 651.494C283.191 651.494 283.506 651.424 283.778 651.284C284.051 651.14 284.265 650.947 284.42 650.705C284.576 650.462 284.653 650.187 284.653 649.881V648.955C284.578 649.004 284.473 649.049 284.341 649.091C284.212 649.129 284.066 649.165 283.903 649.199C283.741 649.229 283.578 649.258 283.415 649.284C283.252 649.307 283.104 649.328 282.972 649.347C282.688 649.388 282.439 649.455 282.227 649.545C282.015 649.636 281.85 649.759 281.733 649.915C281.616 650.066 281.557 650.256 281.557 650.483C281.557 650.812 281.676 651.064 281.915 651.239C282.157 651.409 282.464 651.494 282.835 651.494ZM288.98 653V641.364H291.401V645.739H291.474C291.58 645.504 291.734 645.265 291.935 645.023C292.139 644.777 292.404 644.572 292.73 644.409C293.06 644.242 293.469 644.159 293.957 644.159C294.594 644.159 295.181 644.326 295.719 644.659C296.257 644.989 296.687 645.487 297.009 646.153C297.33 646.816 297.491 647.648 297.491 648.648C297.491 649.621 297.334 650.443 297.02 651.114C296.709 651.78 296.285 652.286 295.747 652.631C295.213 652.972 294.615 653.142 293.952 653.142C293.482 653.142 293.082 653.064 292.753 652.909C292.427 652.754 292.16 652.559 291.952 652.324C291.743 652.085 291.584 651.845 291.474 651.602H291.366V653H288.98ZM291.349 648.636C291.349 649.155 291.421 649.608 291.565 649.994C291.709 650.381 291.918 650.682 292.19 650.898C292.463 651.11 292.795 651.216 293.185 651.216C293.579 651.216 293.912 651.108 294.185 650.892C294.457 650.672 294.664 650.369 294.804 649.983C294.948 649.593 295.02 649.144 295.02 648.636C295.02 648.133 294.95 647.689 294.81 647.307C294.67 646.924 294.463 646.625 294.19 646.409C293.918 646.193 293.582 646.085 293.185 646.085C292.791 646.085 292.457 646.189 292.185 646.398C291.916 646.606 291.709 646.902 291.565 647.284C291.421 647.667 291.349 648.117 291.349 648.636ZM300.521 653.148C300.146 653.148 299.824 653.015 299.555 652.75C299.29 652.481 299.158 652.159 299.158 651.784C299.158 651.413 299.29 651.095 299.555 650.83C299.824 650.564 300.146 650.432 300.521 650.432C300.885 650.432 301.203 650.564 301.476 650.83C301.749 651.095 301.885 651.413 301.885 651.784C301.885 652.034 301.821 652.263 301.692 652.472C301.567 652.676 301.402 652.841 301.197 652.966C300.993 653.087 300.768 653.148 300.521 653.148ZM309.693 653L306.364 641.364H309.051L310.977 649.449H311.074L313.199 641.364H315.5L317.619 649.466H317.722L319.648 641.364H322.335L319.006 653H316.608L314.392 645.392H314.301L312.091 653H309.693ZM326.646 653.17C325.749 653.17 324.976 652.989 324.328 652.625C323.684 652.258 323.188 651.739 322.839 651.068C322.491 650.394 322.317 649.597 322.317 648.676C322.317 647.778 322.491 646.991 322.839 646.312C323.188 645.634 323.679 645.106 324.311 644.727C324.947 644.348 325.694 644.159 326.55 644.159C327.125 644.159 327.661 644.252 328.158 644.438C328.658 644.619 329.093 644.894 329.464 645.261C329.839 645.629 330.131 646.091 330.339 646.648C330.548 647.201 330.652 647.848 330.652 648.591V649.256H323.283V647.756H328.374C328.374 647.407 328.298 647.098 328.146 646.83C327.995 646.561 327.785 646.35 327.516 646.199C327.25 646.044 326.942 645.966 326.589 645.966C326.222 645.966 325.896 646.051 325.612 646.222C325.332 646.388 325.112 646.614 324.953 646.898C324.794 647.178 324.713 647.491 324.709 647.835V649.261C324.709 649.693 324.788 650.066 324.947 650.381C325.11 650.695 325.339 650.938 325.635 651.108C325.93 651.278 326.281 651.364 326.686 651.364C326.955 651.364 327.201 651.326 327.425 651.25C327.648 651.174 327.839 651.061 327.999 650.909C328.158 650.758 328.279 650.572 328.362 650.352L330.601 650.5C330.487 651.038 330.254 651.508 329.902 651.909C329.554 652.307 329.103 652.617 328.55 652.841C328 653.061 327.366 653.17 326.646 653.17ZM332.277 653V641.364H334.697V645.739H334.771C334.877 645.504 335.031 645.265 335.232 645.023C335.436 644.777 335.701 644.572 336.027 644.409C336.357 644.242 336.766 644.159 337.254 644.159C337.891 644.159 338.478 644.326 339.016 644.659C339.554 644.989 339.983 645.487 340.305 646.153C340.627 646.816 340.788 647.648 340.788 648.648C340.788 649.621 340.631 650.443 340.317 651.114C340.006 651.78 339.582 652.286 339.044 652.631C338.51 652.972 337.911 653.142 337.249 653.142C336.779 653.142 336.379 653.064 336.05 652.909C335.724 652.754 335.457 652.559 335.249 652.324C335.04 652.085 334.881 651.845 334.771 651.602H334.663V653H332.277ZM334.646 648.636C334.646 649.155 334.718 649.608 334.862 649.994C335.006 650.381 335.214 650.682 335.487 650.898C335.76 651.11 336.091 651.216 336.482 651.216C336.875 651.216 337.209 651.108 337.482 650.892C337.754 650.672 337.961 650.369 338.101 649.983C338.245 649.593 338.317 649.144 338.317 648.636C338.317 648.133 338.247 647.689 338.107 647.307C337.966 646.924 337.76 646.625 337.487 646.409C337.214 646.193 336.879 646.085 336.482 646.085C336.088 646.085 335.754 646.189 335.482 646.398C335.213 646.606 335.006 646.902 334.862 647.284C334.718 647.667 334.646 648.117 334.646 648.636Z" fill="#022B3A"/>
<rect x="63" y="638" width="20" height="20" rx="1" stroke="#022B3A" stroke-width="2"/>
<path d="M537.5 652.55V655.083C537.5 655.317 537.683 655.5 537.917 655.5H540.45C540.558 655.5 540.667 655.458 540.742 655.375L549.842 646.283L546.717 643.158L537.625 652.25C537.542 652.333 537.5 652.433 537.5 652.55ZM552.258 643.867C552.336 643.79 552.397 643.698 552.439 643.597C552.481 643.496 552.502 643.388 552.502 643.279C552.502 643.17 552.481 643.062 552.439 642.961C552.397 642.86 552.336 642.769 552.258 642.692L550.308 640.742C550.231 640.664 550.14 640.603 550.039 640.561C549.938 640.519 549.83 640.498 549.721 640.498C549.612 640.498 549.504 640.519 549.403 640.561C549.302 640.603 549.21 640.664 549.133 640.742L547.608 642.267L550.733 645.392L552.258 643.867Z" fill="#022B3A"/>
<path d="M576.833 642.167L565.167 653.833" stroke="#022B3A" stroke-width="2" stroke-linecap="round"/>
<path d="M565.167 642.167L576.833 653.833" stroke="#022B3A" stroke-width="2" stroke-linecap="round"/>
<rect x="-638" y="-89" width="1920" height="351" fill="white"/>
<path d="M252.276 221.786V195.604H269.918V200.168H257.811V206.406H269.01V210.97H257.811V217.222H269.969V221.786H252.276ZM290.554 207.749L285.569 208.056C285.483 207.629 285.3 207.246 285.019 206.905C284.738 206.556 284.367 206.279 283.907 206.074C283.455 205.861 282.914 205.754 282.283 205.754C281.439 205.754 280.728 205.933 280.148 206.291C279.569 206.641 279.279 207.11 279.279 207.698C279.279 208.166 279.466 208.563 279.841 208.887C280.216 209.21 280.86 209.47 281.772 209.666L285.326 210.382C287.235 210.774 288.658 211.405 289.596 212.274C290.533 213.144 291.002 214.286 291.002 215.7C291.002 216.987 290.623 218.117 289.864 219.088C289.114 220.06 288.083 220.818 286.77 221.364C285.466 221.901 283.962 222.169 282.257 222.169C279.658 222.169 277.587 221.628 276.044 220.546C274.51 219.455 273.611 217.972 273.347 216.097L278.703 215.816C278.865 216.608 279.257 217.213 279.88 217.631C280.502 218.04 281.299 218.245 282.27 218.245C283.225 218.245 283.992 218.061 284.571 217.695C285.159 217.32 285.458 216.838 285.466 216.25C285.458 215.756 285.249 215.351 284.84 215.036C284.431 214.712 283.8 214.465 282.948 214.294L279.547 213.617C277.63 213.233 276.202 212.568 275.265 211.622C274.336 210.676 273.871 209.47 273.871 208.004C273.871 206.743 274.212 205.656 274.894 204.745C275.584 203.833 276.551 203.129 277.796 202.635C279.049 202.141 280.515 201.894 282.194 201.894C284.674 201.894 286.625 202.418 288.049 203.466C289.48 204.514 290.316 205.942 290.554 207.749ZM304.876 202.149V206.24H293.05V202.149H304.876ZM295.735 197.445H301.181V215.752C301.181 216.254 301.258 216.647 301.411 216.928C301.565 217.2 301.778 217.392 302.05 217.503C302.332 217.614 302.656 217.669 303.022 217.669C303.278 217.669 303.533 217.648 303.789 217.605C304.045 217.554 304.241 217.516 304.377 217.49L305.234 221.543C304.961 221.628 304.577 221.726 304.083 221.837C303.589 221.956 302.988 222.029 302.281 222.054C300.968 222.105 299.817 221.931 298.829 221.53C297.849 221.129 297.086 220.507 296.54 219.664C295.995 218.82 295.727 217.754 295.735 216.468V197.445ZM321.016 213.425V202.149H326.462V221.786H321.233V218.219H321.028C320.585 219.37 319.848 220.294 318.817 220.993C317.794 221.692 316.545 222.041 315.071 222.041C313.759 222.041 312.604 221.743 311.607 221.147C310.609 220.55 309.83 219.702 309.267 218.602C308.713 217.503 308.432 216.186 308.423 214.652V202.149H313.869V213.681C313.878 214.84 314.189 215.756 314.803 216.429C315.416 217.102 316.239 217.439 317.27 217.439C317.926 217.439 318.54 217.29 319.111 216.992C319.682 216.685 320.142 216.233 320.491 215.637C320.849 215.04 321.024 214.303 321.016 213.425ZM338.054 222.105C336.562 222.105 335.211 221.722 334.001 220.955C332.799 220.179 331.845 219.041 331.137 217.541C330.439 216.033 330.089 214.183 330.089 211.993C330.089 209.743 330.451 207.872 331.176 206.381C331.9 204.881 332.863 203.76 334.065 203.019C335.275 202.269 336.6 201.894 338.041 201.894C339.14 201.894 340.056 202.081 340.789 202.456C341.531 202.823 342.127 203.283 342.579 203.837C343.039 204.382 343.389 204.919 343.627 205.448H343.794V195.604H349.227V221.786H343.858V218.641H343.627C343.372 219.186 343.01 219.727 342.541 220.264C342.081 220.793 341.48 221.232 340.738 221.581C340.005 221.931 339.11 222.105 338.054 222.105ZM339.779 217.772C340.657 217.772 341.399 217.533 342.004 217.056C342.618 216.57 343.086 215.892 343.41 215.023C343.743 214.154 343.909 213.135 343.909 211.968C343.909 210.8 343.747 209.786 343.423 208.925C343.099 208.064 342.63 207.399 342.017 206.931C341.403 206.462 340.657 206.227 339.779 206.227C338.885 206.227 338.13 206.47 337.517 206.956C336.903 207.442 336.439 208.115 336.123 208.976C335.808 209.837 335.65 210.834 335.65 211.968C335.65 213.11 335.808 214.12 336.123 214.997C336.447 215.867 336.912 216.548 337.517 217.043C338.13 217.529 338.885 217.772 339.779 217.772ZM362.577 222.169C360.591 222.169 358.874 221.747 357.425 220.904C355.984 220.051 354.872 218.867 354.088 217.35C353.304 215.824 352.912 214.056 352.912 212.044C352.912 210.016 353.304 208.243 354.088 206.726C354.872 205.2 355.984 204.016 357.425 203.172C358.874 202.32 360.591 201.894 362.577 201.894C364.562 201.894 366.276 202.32 367.716 203.172C369.165 204.016 370.281 205.2 371.065 206.726C371.849 208.243 372.241 210.016 372.241 212.044C372.241 214.056 371.849 215.824 371.065 217.35C370.281 218.867 369.165 220.051 367.716 220.904C366.276 221.747 364.562 222.169 362.577 222.169ZM362.602 217.95C363.506 217.95 364.26 217.695 364.865 217.183C365.47 216.664 365.926 215.956 366.233 215.061C366.548 214.166 366.706 213.148 366.706 212.006C366.706 210.864 366.548 209.845 366.233 208.95C365.926 208.056 365.47 207.348 364.865 206.828C364.26 206.308 363.506 206.048 362.602 206.048C361.69 206.048 360.923 206.308 360.301 206.828C359.688 207.348 359.223 208.056 358.908 208.95C358.601 209.845 358.447 210.864 358.447 212.006C358.447 213.148 358.601 214.166 358.908 215.061C359.223 215.956 359.688 216.664 360.301 217.183C360.923 217.695 361.69 217.95 362.602 217.95ZM392.121 207.749L387.135 208.056C387.05 207.629 386.866 207.246 386.585 206.905C386.304 206.556 385.933 206.279 385.473 206.074C385.021 205.861 384.48 205.754 383.849 205.754C383.006 205.754 382.294 205.933 381.714 206.291C381.135 206.641 380.845 207.11 380.845 207.698C380.845 208.166 381.033 208.563 381.408 208.887C381.783 209.21 382.426 209.47 383.338 209.666L386.892 210.382C388.801 210.774 390.224 211.405 391.162 212.274C392.099 213.144 392.568 214.286 392.568 215.7C392.568 216.987 392.189 218.117 391.43 219.088C390.68 220.06 389.649 220.818 388.337 221.364C387.033 221.901 385.528 222.169 383.824 222.169C381.224 222.169 379.153 221.628 377.611 220.546C376.077 219.455 375.178 217.972 374.913 216.097L380.27 215.816C380.432 216.608 380.824 217.213 381.446 217.631C382.068 218.04 382.865 218.245 383.837 218.245C384.791 218.245 385.558 218.061 386.138 217.695C386.726 217.32 387.024 216.838 387.033 216.25C387.024 215.756 386.815 215.351 386.406 215.036C385.997 214.712 385.366 214.465 384.514 214.294L381.114 213.617C379.196 213.233 377.768 212.568 376.831 211.622C375.902 210.676 375.438 209.47 375.438 208.004C375.438 206.743 375.778 205.656 376.46 204.745C377.151 203.833 378.118 203.129 379.362 202.635C380.615 202.141 382.081 201.894 383.76 201.894C386.24 201.894 388.192 202.418 389.615 203.466C391.047 204.514 391.882 205.942 392.121 207.749Z" fill="#022B3A"/>
</g>
<defs>
<clipPath id="clip0_2_3">
<rect x="18" y="130" width="598" height="1057" rx="45" fill="white"/>
</clipPath>
<clipPath id="clip1_2_3">
<rect width="18" height="18" fill="white" transform="translate(64 495)"/>
</clipPath>
</defs>
</svg>
